<svg width="18" height="20" viewBox="0 0 18 20" fill="none" xmlns="http://www.w3.org/2000/svg">
<path d="M16 19V17C16 16.2044 15.6839 15.4413 15.1213 14.8787C14.5587 14.3161 13.7956 14 13 14H5C4.20435 14 3.44129 14.3161 2.87868 14.8787C2.31607 15.4413 2 16.2044 2 17V19C2 19.2652 1.89464 19.5196 1.70711 19.7071C1.51957 19.8946 1.26522 20 1 20C0.734784 20 0.480429 19.8946 0.292892 19.7071C0.105356 19.5196 0 19.2652 0 19V17C0 15.6739 0.526784 14.4022 1.46447 13.4645C2.40215 12.5268 3.67392 12 5 12H13C14.3261 12 15.5979 12.5268 16.5355 13.4645C17.4732 14.4022 18 15.6739 18 17V19C18 19.2652 17.8946 19.5196 17.7071 19.7071C17.5196 19.8946 17.2652 20 17 20C16.7348 20 16.4804 19.8946 16.2929 19.7071C16.1054 19.5196 16 19.2652 16 19ZM4 5C4 4.0111 4.29324 3.04442 4.84265 2.22217C5.39206 1.39992 6.17295 0.759055 7.08658 0.380617C8.00021 0.00217915 9.00555 -0.0968547 9.97545 0.0960714C10.9454 0.288998 11.8363 0.765217 12.5355 1.46448C13.2348 2.16374 13.711 3.05463 13.9039 4.02454C14.0968 4.99444 13.9978 5.99976 13.6194 6.91339C13.241 7.82702 12.6001 8.60794 11.7779 9.15735C10.9556 9.70676 9.98891 10 9 10C7.67392 10 6.40215 9.47321 5.46447 8.53552C4.52678 7.59784 4 6.32608 4 5ZM6 5C6 5.59335 6.17595 6.17334 6.50559 6.66669C6.83524 7.16004 7.30377 7.54461 7.85195 7.77167C8.40013 7.99873 9.00333 8.05814 9.58527 7.94238C10.1672 7.82663 10.7018 7.5409 11.1213 7.12134C11.5409 6.70178 11.8266 6.16721 11.9424 5.58527C12.0581 5.00332 11.9987 4.40011 11.7716 3.85193C11.5446 3.30375 11.1601 2.83526 10.6667 2.50562C10.1734 2.17597 9.59334 2 9 2C8.20435 2 7.44129 2.31606 6.87868 2.87866C6.31607 3.44127 6 4.20435 6 5Z" fill="white"/>
</svg>
