<svg width="181" height="39" viewBox="0 0 181 39" fill="none" xmlns="http://www.w3.org/2000/svg">
<mask id="path-1-outside-1_10_1609" maskUnits="userSpaceOnUse" x="0" y="0" width="20" height="23" fill="black">
<rect fill="white" width="20" height="23"/>
<path d="M14.678 19.838L12.9244 22.4582C12.9244 22.4582 4.51247 23.1872 1.59664 14.9166C-1.31918 6.64611 7.15221 0.413501 11.8803 1.04391L11.805 3.99885C10.8624 3.96494 9.932 4.22136 9.1398 4.73344C8.3476 5.24552 7.73178 5.98854 7.37563 6.86202C6.10203 9.94635 7.66451 13.376 11.2122 13.7702C14.76 14.1644 18.0677 14.1772 19.3677 15.2935L16.8333 17.5263C15.571 16.983 14.1992 16.7424 12.8274 16.8237C10.0695 16.8237 5.75598 16.4295 4.11978 10.5C4.11978 10.5 2.21577 19.3912 14.6787 19.838"/>
</mask>
<path d="M14.678 19.838L12.9244 22.4582C12.9244 22.4582 4.51247 23.1872 1.59664 14.9166C-1.31918 6.64611 7.15221 0.413501 11.8803 1.04391L11.805 3.99885C10.8624 3.96494 9.932 4.22136 9.1398 4.73344C8.3476 5.24552 7.73178 5.98854 7.37563 6.86202C6.10203 9.94635 7.66451 13.376 11.2122 13.7702C14.76 14.1644 18.0677 14.1772 19.3677 15.2935L16.8333 17.5263C15.571 16.983 14.1992 16.7424 12.8274 16.8237C10.0695 16.8237 5.75598 16.4295 4.11978 10.5C4.11978 10.5 2.21577 19.3912 14.6787 19.838" fill="#0CA750"/>
<path d="M12.9244 22.4582L12.9386 22.6212L13.0168 22.6145L13.0604 22.5492L12.9244 22.4582ZM11.8803 1.04391L12.0438 1.04807L12.0476 0.901134L11.9019 0.881708L11.8803 1.04391ZM11.805 3.99885L11.7992 4.16238L11.9644 4.16833L11.9686 4.00302L11.805 3.99885ZM7.37563 6.86202L7.52688 6.92447L7.52716 6.9238L7.37563 6.86202ZM19.3677 15.2935L19.4758 15.4163L19.617 15.292L19.4743 15.1694L19.3677 15.2935ZM16.8333 17.5263L16.7686 17.6766L16.8637 17.7175L16.9414 17.6491L16.8333 17.5263ZM12.8274 16.8237V16.9876L12.8371 16.987L12.8274 16.8237ZM4.11978 10.5L4.27752 10.4565L3.95977 10.4658L4.11978 10.5ZM14.542 19.747L12.7884 22.3672L13.0604 22.5492L14.814 19.9291L14.542 19.747ZM12.9244 22.4582C12.9103 22.2952 12.9103 22.2952 12.9104 22.2952C12.9103 22.2952 12.9103 22.2952 12.9102 22.2952C12.9101 22.2952 12.9098 22.2952 12.9094 22.2953C12.9086 22.2953 12.9073 22.2954 12.9055 22.2956C12.9019 22.2959 12.8963 22.2963 12.8887 22.2968C12.8736 22.2979 12.8507 22.2994 12.8205 22.301C12.7601 22.3042 12.6704 22.3079 12.5547 22.3098C12.3232 22.3135 11.9881 22.3097 11.5764 22.2797C10.7526 22.2196 9.62455 22.0543 8.40735 21.6342C5.97703 20.7954 3.18905 18.9413 1.75097 14.8622L1.44232 14.9711C2.92006 19.1626 5.79597 21.0792 8.30058 21.9436C9.55086 22.3751 10.708 22.5444 11.5526 22.6061C11.9751 22.6369 12.3199 22.6409 12.5599 22.637C12.6799 22.6351 12.7737 22.6312 12.8379 22.6278C12.8701 22.6261 12.8948 22.6245 12.9117 22.6233C12.9202 22.6227 12.9267 22.6222 12.9311 22.6218C12.9334 22.6217 12.9351 22.6215 12.9364 22.6214C12.937 22.6214 12.9375 22.6213 12.9378 22.6213C12.938 22.6213 12.9382 22.6213 12.9383 22.6213C12.9384 22.6213 12.9386 22.6212 12.9244 22.4582ZM1.75097 14.8622C0.317533 10.7964 1.67944 7.23274 3.99166 4.75405C5.14862 3.51378 6.54144 2.54822 7.93493 1.93219C9.33028 1.31534 10.7152 1.05366 11.8586 1.20611L11.9019 0.881708C10.6813 0.718958 9.23428 0.999949 7.8026 1.63286C6.36906 2.2666 4.93975 3.2579 3.75234 4.5308C1.3758 7.07845 -0.0400723 10.7664 1.44232 14.9711L1.75097 14.8622ZM11.7167 1.03974L11.6415 3.99469L11.9686 4.00302L12.0438 1.04807L11.7167 1.03974ZM11.8109 3.83532C10.8347 3.80021 9.87132 4.06574 9.05097 4.59602L9.22863 4.87087C9.99268 4.37699 10.89 4.12968 11.7992 4.16238L11.8109 3.83532ZM9.05097 4.59602C8.23062 5.12629 7.59291 5.89572 7.22411 6.80023L7.52716 6.9238C7.87065 6.08137 8.46459 5.36475 9.22863 4.87087L9.05097 4.59602ZM7.22438 6.79956C6.57051 8.38308 6.64197 10.0624 7.34089 11.4007C8.04135 12.7418 9.36692 13.7298 11.1942 13.9328L11.2303 13.6075C9.50984 13.4164 8.28029 12.4924 7.63098 11.2491C6.98013 10.0029 6.90716 8.42529 7.52688 6.92447L7.22438 6.79956ZM11.1942 13.9328C12.9843 14.1317 14.6762 14.2309 16.1112 14.4232C16.824 14.5187 17.4605 14.6359 17.9969 14.7967C18.5345 14.9579 18.9606 15.1596 19.2611 15.4177L19.4743 15.1694C19.1248 14.8693 18.6499 14.6508 18.0909 14.4832C17.5306 14.3153 16.8747 14.1953 16.1546 14.0988C14.7237 13.9071 12.9879 13.8028 11.2303 13.6075L11.1942 13.9328ZM19.2595 15.1707L16.7251 17.4035L16.9414 17.6491L19.4758 15.4163L19.2595 15.1707ZM16.8979 17.376C15.6123 16.8226 14.215 16.5775 12.8177 16.6603L12.8371 16.987C14.1834 16.9073 15.5297 17.1434 16.7686 17.6766L16.8979 17.376ZM12.8274 16.66C11.4534 16.66 9.71899 16.5608 8.12799 15.74C6.54519 14.9234 5.08481 13.382 4.27752 10.4565L3.96204 10.5436C4.79095 13.5475 6.30545 15.1679 7.97794 16.0308C9.64223 16.8894 11.4435 16.9873 12.8274 16.9873V16.66ZM4.11978 10.5C3.95977 10.4658 3.95974 10.4659 3.9597 10.4661C3.95968 10.4662 3.95964 10.4664 3.95959 10.4666C3.95951 10.467 3.95939 10.4676 3.95925 10.4682C3.95897 10.4696 3.95857 10.4715 3.95808 10.4739C3.95709 10.4788 3.95571 10.4858 3.95398 10.4948C3.95052 10.5128 3.94571 10.5391 3.94004 10.573C3.9287 10.6409 3.91392 10.7394 3.89972 10.8645C3.87131 11.1145 3.84513 11.4708 3.85341 11.8994C3.86994 12.7558 4.0242 13.9056 4.57782 15.0716C5.69252 17.4194 8.39754 19.7766 14.6729 20.0016L14.6846 19.6745C8.49696 19.4527 5.92251 17.1408 4.87347 14.9313C4.34522 13.8187 4.19654 12.7178 4.18062 11.8931C4.17266 11.4811 4.19786 11.1394 4.2249 10.9014C4.23841 10.7825 4.25237 10.6896 4.26284 10.627C4.26807 10.5957 4.27243 10.5719 4.27542 10.5563C4.27691 10.5485 4.27806 10.5427 4.27881 10.539C4.27919 10.5372 4.27946 10.5359 4.27963 10.5351C4.27971 10.5347 4.27976 10.5344 4.27979 10.5343C4.27981 10.5342 4.2798 10.5342 4.27981 10.5342C4.2798 10.5342 4.27979 10.5343 4.11978 10.5Z" fill="#0CA750" mask="url(#path-1-outside-1_10_1609)"/>
<path d="M18.6394 24.3218L18.6734 24.2696L18.6047 24.225L18.6734 24.2696L18.6734 24.2695L18.6738 24.269L18.6751 24.2669L18.6807 24.2585L18.7031 24.2249C18.723 24.1952 18.7529 24.1514 18.7924 24.0948C18.8715 23.9818 18.989 23.8181 19.1426 23.6163C19.4498 23.2127 19.901 22.6568 20.4765 22.0486C21.6283 20.8314 23.2742 19.4086 25.2565 18.5741C27.2506 17.7347 28.5713 17.3297 29.5749 17.1342C30.5185 16.9503 31.1839 16.951 31.8726 16.9518C31.9156 16.9518 31.9588 16.9518 32.002 16.9518C32.0341 16.9518 32.0681 16.9519 32.104 16.952C32.8917 16.9538 34.5913 16.9576 36.3101 16.2027C38.0435 15.4415 39.7904 13.9114 40.6511 10.8515C40.7933 11.884 40.7158 12.9363 40.4218 13.9392C40.092 15.0638 39.4995 16.0938 38.6932 16.9443C37.3029 18.3734 36.1835 18.9742 35.0249 19.2457C34.4436 19.3819 33.8498 19.4358 33.202 19.4678C32.947 19.4803 32.6823 19.4895 32.4067 19.4991C31.9859 19.5138 31.5397 19.5293 31.0641 19.559C29.4746 19.6584 27.4338 20.2338 25.4986 21.3128C23.563 22.392 21.7281 23.978 20.5567 26.1023L20.5255 26.159L20.5734 26.2024L22.7008 28.1328L22.772 28.1974L22.8244 28.1168L22.7558 28.0722L22.8244 28.1168L22.8245 28.1166L22.8249 28.116L22.8266 28.1134L22.8338 28.1026C22.8402 28.093 22.8498 28.0786 22.8627 28.0598C22.8885 28.0221 22.9272 27.9666 22.9784 27.8956C23.081 27.7536 23.234 27.55 23.4349 27.3042C23.837 26.8126 24.4307 26.1529 25.1972 25.4812C26.7309 24.1369 28.9506 22.7492 31.7054 22.5554C31.9038 22.5414 32.097 22.528 32.2854 22.515C34.7285 22.346 36.3474 22.2339 37.7438 21.6231C39.253 20.9629 40.4949 19.7246 42.2494 17.24C44.0202 14.7324 44.4138 10.8697 43.0343 7.52686C41.6524 4.17813 38.4922 1.35196 33.1619 0.918451L33.0735 0.911258V1V3.80298V3.87522L33.1451 3.88417L33.1451 3.88417L33.1452 3.88418L33.1456 3.88422L33.1474 3.88446L33.1549 3.88548L33.1856 3.88997C33.2127 3.89411 33.2529 3.90064 33.3045 3.91014C33.4076 3.92913 33.5564 3.95994 33.7374 4.00707C34.0996 4.1014 34.59 4.2608 35.1031 4.52094C36.1294 5.04131 37.2395 5.96064 37.6065 7.56382C37.9767 9.18108 37.7315 10.693 36.9689 11.7934C36.2078 12.8918 34.9244 13.59 33.1953 13.5707L33.1946 13.5707C29.685 13.5608 26.2307 14.4454 23.1578 16.1411C20.085 17.8368 17.495 20.2877 15.6324 23.2623L15.5763 23.3519L15.677 23.3838L18.58 24.303L18.6394 24.3218Z" fill="#0CA750" stroke="#0CA750" stroke-width="0.163636"/>
<mask id="path-4-outside-2_10_1609" maskUnits="userSpaceOnUse" x="21.9135" y="23.6442" width="12" height="15" fill="black">
<rect fill="white" x="21.9135" y="23.6442" width="12" height="15"/>
<path d="M33.7471 27.6786V24.6447C33.7471 24.6447 25.0921 24.4085 24.4091 34.1798C24.4091 34.3819 24.3288 34.5757 24.1859 34.7186C24.0429 34.8615 23.8491 34.9418 23.647 34.9418H22.9271L22.9135 38.3549C23.8587 38.3691 24.7832 38.0778 25.5495 37.5244C26.3158 36.971 26.8831 36.185 27.1669 35.2834C28.2434 32.0523 27.0353 28.5595 33.7463 27.6794"/>
</mask>
<path d="M33.7471 27.6786V24.6447C33.7471 24.6447 25.0921 24.4085 24.4091 34.1798C24.4091 34.3819 24.3288 34.5757 24.1859 34.7186C24.0429 34.8615 23.8491 34.9418 23.647 34.9418H22.9271L22.9135 38.3549C23.8587 38.3691 24.7832 38.0778 25.5495 37.5244C26.3158 36.971 26.8831 36.185 27.1669 35.2834C28.2434 32.0523 27.0353 28.5595 33.7463 27.6794" fill="#0CA750"/>
<path d="M33.7471 24.6447H33.9107V24.4854L33.7515 24.4811L33.7471 24.6447ZM24.4091 34.1798L24.2454 34.1683V34.1798H24.4091ZM22.9271 34.9418V34.7782H22.7641L22.7634 34.9412L22.9271 34.9418ZM22.9135 38.3549L22.7499 38.3543L22.7493 38.5161L22.9111 38.5185L22.9135 38.3549ZM27.1669 35.2834L27.0116 35.2316L27.0108 35.2342L27.1669 35.2834ZM33.9107 27.6786V24.6447H33.5834V27.6786H33.9107ZM33.7471 24.6447C33.7515 24.4811 33.7514 24.4811 33.7513 24.4811C33.7512 24.4811 33.751 24.4811 33.7508 24.4811C33.7504 24.4811 33.7499 24.4811 33.7492 24.481C33.7479 24.481 33.7461 24.481 33.7438 24.4809C33.7391 24.4808 33.7324 24.4807 33.7237 24.4807C33.7063 24.4805 33.6809 24.4804 33.648 24.4808C33.5823 24.4815 33.4866 24.4838 33.3652 24.4902C33.1223 24.5031 32.7758 24.5325 32.3584 24.5988C31.5242 24.7313 30.4032 25.0113 29.2591 25.6026C26.9613 26.7901 24.5915 29.2234 24.2458 34.1684L24.5723 34.1912C24.9097 29.3648 27.2089 27.0306 29.4093 25.8933C30.5144 25.3223 31.5998 25.0507 32.4097 24.922C32.8144 24.8578 33.1494 24.8294 33.3825 24.817C33.499 24.8108 33.59 24.8087 33.6514 24.808C33.6821 24.8077 33.7054 24.8078 33.7207 24.8079C33.7284 24.808 33.7341 24.8081 33.7378 24.8081C33.7396 24.8082 33.7409 24.8082 33.7418 24.8082C33.7422 24.8082 33.7424 24.8082 33.7426 24.8082C33.7426 24.8082 33.7426 24.8082 33.7427 24.8082C33.7427 24.8082 33.7426 24.8082 33.7471 24.6447ZM24.2454 34.1798C24.2454 34.3385 24.1824 34.4907 24.0701 34.6029L24.3016 34.8343C24.4752 34.6607 24.5727 34.4253 24.5727 34.1798H24.2454ZM24.0701 34.6029C23.9579 34.7151 23.8057 34.7782 23.647 34.7782V35.1055C23.8925 35.1055 24.128 35.0079 24.3016 34.8343L24.0701 34.6029ZM23.647 34.7782H22.9271V35.1055H23.647V34.7782ZM22.7634 34.9412L22.7499 38.3543L23.0772 38.3556L23.0907 34.9425L22.7634 34.9412ZM22.9111 38.5185C23.8915 38.5332 24.8504 38.2311 25.6453 37.657L25.4537 37.3917C24.7159 37.9245 23.8259 38.2049 22.916 38.1913L22.9111 38.5185ZM25.6453 37.657C26.4402 37.083 27.0286 36.2677 27.323 35.3325L27.0108 35.2342C26.7376 36.1023 26.1915 36.8589 25.4537 37.3917L25.6453 37.657ZM27.3222 35.3351C27.596 34.5132 27.7245 33.6744 27.8664 32.8849C28.0094 32.0893 28.166 31.3423 28.4909 30.6711C28.8134 30.005 29.3036 29.4097 30.1218 28.9252C30.9436 28.4386 32.1028 28.0599 33.7676 27.8416L33.725 27.5171C32.0343 27.7389 30.8279 28.1268 29.9551 28.6436C29.0787 29.1626 28.5453 29.8075 28.1964 30.5285C27.8499 31.2443 27.6873 32.0314 27.5443 32.827C27.4002 33.6286 27.2761 34.438 27.0117 35.2316L27.3222 35.3351Z" fill="#0CA750" mask="url(#path-4-outside-2_10_1609)"/>
<mask id="path-6-outside-3_10_1609" maskUnits="userSpaceOnUse" x="11.234" y="23.6442" width="12" height="15" fill="black">
<rect fill="white" x="11.234" y="23.6442" width="12" height="15"/>
<path d="M12.234 27.6786V24.6447C12.234 24.6447 20.889 24.4085 21.572 34.1798C21.572 34.3819 21.6523 34.5757 21.7952 34.7186C21.9381 34.8615 22.132 34.9418 22.3341 34.9418H22.9908V38.3564C22.0559 38.3651 21.1433 38.0703 20.3902 37.5162C19.6371 36.9621 19.0841 36.1786 18.8142 35.2834C17.7377 32.0523 18.9458 28.5595 12.234 27.6794"/>
</mask>
<path d="M12.234 27.6786V24.6447C12.234 24.6447 20.889 24.4085 21.572 34.1798C21.572 34.3819 21.6523 34.5757 21.7952 34.7186C21.9381 34.8615 22.132 34.9418 22.3341 34.9418H22.9908V38.3564C22.0559 38.3651 21.1433 38.0703 20.3902 37.5162C19.6371 36.9621 19.0841 36.1786 18.8142 35.2834C17.7377 32.0523 18.9458 28.5595 12.234 27.6794" fill="#0CA750"/>
<path d="M12.234 24.6447L12.2296 24.4811L12.0704 24.4854V24.6447H12.234ZM21.572 34.1798H21.7361L21.7353 34.1684L21.572 34.1798ZM22.9908 34.9418H23.1545V34.7782H22.9908V34.9418ZM22.9908 38.3564L22.9923 38.52L23.1545 38.5185V38.3564H22.9908ZM18.8142 35.2834L18.9709 35.2361L18.9694 35.2316L18.8142 35.2834ZM12.3977 27.6786V24.6447H12.0704V27.6786H12.3977ZM12.234 24.6447C12.2385 24.8082 12.2384 24.8082 12.2384 24.8082C12.2384 24.8082 12.2385 24.8082 12.2385 24.8082C12.2387 24.8082 12.2389 24.8082 12.2393 24.8082C12.2401 24.8082 12.2415 24.8082 12.2433 24.8081C12.247 24.8081 12.2527 24.808 12.2604 24.8079C12.2757 24.8078 12.299 24.8077 12.3297 24.808C12.3911 24.8087 12.4821 24.8108 12.5986 24.817C12.8317 24.8294 13.1667 24.8578 13.5714 24.922C14.3813 25.0507 15.4667 25.3223 16.5718 25.8933C18.7722 27.0306 21.0714 29.3648 21.4088 34.1912L21.7353 34.1684C21.3896 29.2234 19.0198 26.7901 16.722 25.6026C15.5779 25.0113 14.4569 24.7313 13.6227 24.5988C13.2053 24.5325 12.8588 24.5031 12.6159 24.4902C12.4944 24.4838 12.3988 24.4815 12.3331 24.4808C12.3002 24.4804 12.2748 24.4805 12.2574 24.4807C12.2487 24.4807 12.242 24.4808 12.2373 24.4809C12.235 24.481 12.2332 24.481 12.2319 24.481C12.2312 24.4811 12.2307 24.4811 12.2303 24.4811C12.2301 24.4811 12.2299 24.4811 12.2298 24.4811C12.2297 24.4811 12.2296 24.4811 12.234 24.6447ZM21.4084 34.1798C21.4084 34.4253 21.5059 34.6607 21.6795 34.8343L21.9109 34.6029C21.7987 34.4907 21.7357 34.3385 21.7357 34.1798H21.4084ZM21.6795 34.8343C21.8531 35.0079 22.0886 35.1055 22.3341 35.1055V34.7782C22.1754 34.7782 22.0232 34.7151 21.9109 34.6029L21.6795 34.8343ZM22.3341 35.1055H22.9908V34.7782H22.3341V35.1055ZM22.8272 34.9418V38.3564H23.1545V34.9418H22.8272ZM22.9893 38.1928C22.0898 38.2012 21.2118 37.9175 20.4872 37.3844L20.2932 37.648C21.0749 38.2231 22.022 38.5291 22.9923 38.52L22.9893 38.1928ZM20.4872 37.3844C19.7626 36.8512 19.2305 36.0974 18.9709 35.2361L18.6575 35.3306C18.9376 36.2597 19.5116 37.0729 20.2932 37.648L20.4872 37.3844ZM18.9694 35.2316C18.705 34.438 18.5809 33.6286 18.4368 32.827C18.2938 32.0314 18.1312 31.2443 17.7846 30.5285C17.4356 29.8075 16.9022 29.1626 16.0257 28.6436C15.1528 28.1268 13.9463 27.7389 12.2553 27.5171L12.2127 27.8416C13.8777 28.0599 15.0371 28.4386 15.859 28.9253C16.6773 29.4097 17.1676 30.005 17.4901 30.6711C17.815 31.3424 17.9717 32.0893 18.1147 32.8849C18.2566 33.6744 18.3851 34.5132 18.6589 35.3351L18.9694 35.2316Z" fill="#0CA750" mask="url(#path-6-outside-3_10_1609)"/>
<path d="M67.1513 25.8256C67.1513 25.3462 67.0767 24.92 66.9276 24.5472C66.7891 24.1743 66.5387 23.8334 66.1765 23.5244C65.8143 23.2155 65.3029 22.9172 64.6424 22.6296C63.9925 22.3313 63.1616 22.0276 62.1495 21.7187C61.0415 21.3778 60.0188 20.9996 59.0813 20.5841C58.1545 20.158 57.3448 19.6679 56.6523 19.1139C55.9599 18.5493 55.4219 17.9048 55.0384 17.1803C54.6548 16.4452 54.4631 15.5983 54.4631 14.6395C54.4631 13.6913 54.6602 12.8284 55.0543 12.0507C55.4592 11.273 56.0291 10.6019 56.7642 10.0372C57.5099 9.46194 58.3889 9.01982 59.4009 8.71087C60.413 8.39127 61.5316 8.23147 62.7567 8.23147C64.4826 8.23147 65.9688 8.55107 67.2152 9.19027C68.4723 9.82948 69.4364 10.6871 70.1076 11.7631C70.7894 12.8391 71.1303 14.0269 71.1303 15.3266H67.1513C67.1513 14.5596 66.9862 13.8831 66.6559 13.2972C66.3363 12.7006 65.8462 12.2318 65.1857 11.8909C64.5359 11.55 63.7102 11.3796 62.7088 11.3796C61.7607 11.3796 60.9723 11.5234 60.3438 11.811C59.7152 12.0987 59.2465 12.4875 58.9375 12.9776C58.6286 13.4676 58.4741 14.0216 58.4741 14.6395C58.4741 15.0763 58.5753 15.4758 58.7777 15.838C58.9801 16.1896 59.2891 16.5198 59.7045 16.8288C60.12 17.1271 60.642 17.4094 61.2706 17.6757C61.8991 17.9421 62.6396 18.1977 63.4918 18.4428C64.7809 18.8263 65.9048 19.2524 66.8636 19.7212C67.8224 20.1793 68.6214 20.7013 69.2607 21.2872C69.8999 21.8732 70.3793 22.539 70.6989 23.2847C71.0185 24.0198 71.1783 24.8561 71.1783 25.7936C71.1783 26.7737 70.9812 27.658 70.587 28.4463C70.1928 29.224 69.6282 29.8898 68.8931 30.4438C68.1687 30.9871 67.2951 31.408 66.2724 31.7063C65.2603 31.9939 64.131 32.1377 62.8846 32.1377C61.766 32.1377 60.6634 31.9886 59.5767 31.6903C58.5007 31.392 57.5206 30.9392 56.6364 30.332C55.7521 29.7141 55.049 28.947 54.527 28.0308C54.005 27.104 53.744 26.0227 53.744 24.7869H57.755C57.755 25.5433 57.8828 26.1878 58.1385 26.7205C58.4048 27.2531 58.7724 27.6899 59.2411 28.0308C59.7099 28.3611 60.2532 28.6061 60.8711 28.7659C61.4996 28.9257 62.1708 29.0056 62.8846 29.0056C63.8221 29.0056 64.6051 28.8724 65.2337 28.6061C65.8729 28.3398 66.3523 27.9669 66.6719 27.4875C66.9915 27.0081 67.1513 26.4541 67.1513 25.8256ZM82.2685 14.5276V17.3401H72.5206V14.5276H82.2685ZM75.3331 10.2929H79.1843V27.0401C79.1843 27.5727 79.2589 27.9829 79.408 28.2705C79.5678 28.5475 79.7862 28.734 80.0632 28.8298C80.3402 28.9257 80.6651 28.9737 81.038 28.9737C81.3043 28.9737 81.56 28.9577 81.805 28.9257C82.0501 28.8938 82.2472 28.8618 82.3963 28.8298L82.4123 31.7702C82.0927 31.8661 81.7198 31.9513 81.2937 32.0259C80.8782 32.1004 80.3988 32.1377 79.8555 32.1377C78.9712 32.1377 78.1882 31.9832 77.5064 31.6743C76.8246 31.3547 76.2919 30.838 75.9084 30.1242C75.5249 29.4104 75.3331 28.4623 75.3331 27.2798V10.2929ZM84.1222 23.3646V22.9971C84.1222 21.7506 84.3033 20.5947 84.6655 19.5294C85.0277 18.4534 85.5497 17.5212 86.2315 16.7329C86.924 15.9339 87.7656 15.316 88.7564 14.8792C89.7578 14.4318 90.8871 14.208 92.1442 14.208C93.4119 14.208 94.5412 14.4318 95.532 14.8792C96.5334 15.316 97.3803 15.9339 98.0728 16.7329C98.7653 17.5212 99.2926 18.4534 99.6548 19.5294C100.017 20.5947 100.198 21.7506 100.198 22.9971V23.3646C100.198 24.6111 100.017 25.767 99.6548 26.8323C99.2926 27.8977 98.7653 28.8298 98.0728 29.6288C97.3803 30.4172 96.5387 31.0351 95.5479 31.4825C94.5572 31.9193 93.4332 32.1377 92.1761 32.1377C90.9084 32.1377 89.7738 31.9193 88.7724 31.4825C87.7816 31.0351 86.94 30.4172 86.2475 29.6288C85.555 28.8298 85.0277 27.8977 84.6655 26.8323C84.3033 25.767 84.1222 24.6111 84.1222 23.3646ZM87.9734 22.9971V23.3646C87.9734 24.1423 88.0533 24.8774 88.2131 25.5699C88.3729 26.2624 88.6232 26.8696 88.9641 27.3916C89.305 27.9136 89.7418 28.3238 90.2745 28.6221C90.8072 28.9204 91.4411 29.0695 92.1761 29.0695C92.8899 29.0695 93.5078 28.9204 94.0298 28.6221C94.5625 28.3238 94.9993 27.9136 95.3402 27.3916C95.6811 26.8696 95.9315 26.2624 96.0913 25.5699C96.2617 24.8774 96.3469 24.1423 96.3469 23.3646V22.9971C96.3469 22.23 96.2617 21.5056 96.0913 20.8238C95.9315 20.1313 95.6758 19.5188 95.3242 18.9861C94.9833 18.4534 94.5465 18.0379 94.0138 17.7396C93.4918 17.4307 92.8686 17.2762 92.1442 17.2762C91.4197 17.2762 90.7912 17.4307 90.2585 17.7396C89.7365 18.0379 89.305 18.4534 88.9641 18.9861C88.6232 19.5188 88.3729 20.1313 88.2131 20.8238C88.0533 21.5056 87.9734 22.23 87.9734 22.9971ZM106.015 14.5276L109.307 20.2645L112.663 14.5276H116.897L111.656 23.0131L117.105 31.8181H112.87L109.355 25.8416L105.839 31.8181H101.588L107.022 23.0131L101.796 14.5276H106.015ZM123.929 8.55107V31.8181H119.918V8.55107H123.929ZM137.911 8.55107L128.483 19.7531L123.114 25.4421L122.411 21.463L126.246 16.7329L133.021 8.55107H137.911ZM133.597 31.8181L125.942 20.7918L128.707 18.0592L138.359 31.8181H133.597ZM149.96 28.3504V20.1047C149.96 19.4868 149.848 18.9541 149.625 18.5067C149.401 18.0592 149.06 17.713 148.602 17.468C148.154 17.2229 147.59 17.1004 146.908 17.1004C146.279 17.1004 145.736 17.207 145.278 17.42C144.82 17.6331 144.463 17.9207 144.207 18.283C143.952 18.6452 143.824 19.0553 143.824 19.5134H139.989C139.989 18.8316 140.154 18.1711 140.484 17.5319C140.814 16.8927 141.294 16.3227 141.922 15.822C142.551 15.3213 143.302 14.9271 144.175 14.6395C145.049 14.3519 146.029 14.208 147.116 14.208C148.415 14.208 149.566 14.4264 150.567 14.8632C151.58 15.3 152.373 15.9605 152.949 16.8447C153.534 17.7183 153.827 18.8156 153.827 20.1367V27.8231C153.827 28.6114 153.881 29.3199 153.987 29.9484C154.104 30.5663 154.27 31.1043 154.483 31.5624V31.8181H150.536C150.354 31.4026 150.211 30.8753 150.104 30.2361C150.008 29.5862 149.96 28.9577 149.96 28.3504ZM150.52 21.3032L150.551 23.6842H147.787C147.073 23.6842 146.445 23.7535 145.901 23.892C145.358 24.0198 144.905 24.2116 144.543 24.4673C144.181 24.7229 143.909 25.0319 143.728 25.3941C143.547 25.7563 143.456 26.1665 143.456 26.6246C143.456 27.0827 143.563 27.5035 143.776 27.887C143.989 28.2599 144.298 28.5528 144.703 28.7659C145.118 28.979 145.619 29.0855 146.205 29.0855C146.993 29.0855 147.68 28.9257 148.266 28.6061C148.863 28.2759 149.332 27.8764 149.673 27.4076C150.013 26.9282 150.195 26.4754 150.216 26.0493L151.462 27.7592C151.335 28.196 151.116 28.6647 150.807 29.1654C150.498 29.6661 150.093 30.1455 149.593 30.6036C149.103 31.0511 148.511 31.4186 147.819 31.7063C147.137 31.9939 146.349 32.1377 145.454 32.1377C144.325 32.1377 143.318 31.914 142.434 31.4666C141.549 31.0085 140.857 30.3959 140.356 29.6288C139.855 28.8511 139.605 27.9722 139.605 26.9921C139.605 26.0759 139.776 25.2663 140.116 24.5631C140.468 23.8494 140.979 23.2528 141.651 22.7734C142.332 22.294 143.163 21.9318 144.143 21.6867C145.124 21.431 146.242 21.3032 147.499 21.3032H150.52ZM161.722 17.8195V31.8181H157.87V14.5276H161.546L161.722 17.8195ZM167.011 14.4158L166.979 17.9953C166.745 17.9527 166.489 17.9207 166.212 17.8994C165.946 17.8781 165.679 17.8675 165.413 17.8675C164.752 17.8675 164.172 17.9634 163.671 18.1551C163.17 18.3362 162.75 18.6026 162.409 18.9541C162.078 19.295 161.823 19.7105 161.642 20.2006C161.461 20.6906 161.354 21.2393 161.322 21.8465L160.443 21.9104C160.443 20.8238 160.55 19.8171 160.763 18.8902C160.976 17.9634 161.295 17.1484 161.722 16.4452C162.158 15.7421 162.702 15.1935 163.352 14.7993C164.012 14.4051 164.774 14.208 165.637 14.208C165.871 14.208 166.121 14.2293 166.388 14.272C166.665 14.3146 166.873 14.3625 167.011 14.4158ZM178.149 14.5276V17.3401H168.401V14.5276H178.149ZM171.214 10.2929H175.065V27.0401C175.065 27.5727 175.14 27.9829 175.289 28.2705C175.449 28.5475 175.667 28.734 175.944 28.8298C176.221 28.9257 176.546 28.9737 176.919 28.9737C177.185 28.9737 177.441 28.9577 177.686 28.9257C177.931 28.8938 178.128 28.8618 178.277 28.8298L178.293 31.7702C177.973 31.8661 177.6 31.9513 177.174 32.0259C176.759 32.1004 176.279 32.1377 175.736 32.1377C174.852 32.1377 174.069 31.9832 173.387 31.6743C172.705 31.3547 172.173 30.838 171.789 30.1242C171.406 29.4104 171.214 28.4623 171.214 27.2798V10.2929Z" fill="#424242"/>
</svg>
