<svg width="21" height="24" viewBox="0 0 21 24" fill="none" xmlns="http://www.w3.org/2000/svg">
<path opacity="0.8" d="M13.6929 15.9674C13.673 15.9397 13.6467 15.9172 13.6163 15.9017C13.5858 15.8862 13.5521 15.8783 13.5179 15.8786H12.3282C12.1532 15.8786 12.0509 16.0778 12.1532 16.2205L14.1397 18.9687C14.2259 19.0872 14.4008 19.0872 14.487 18.9687L17.5609 14.7158C17.6632 14.5731 17.5609 14.3739 17.386 14.3739H16.1935C16.1236 14.3739 16.059 14.4062 16.0186 14.4627L14.3093 16.8261L13.6929 15.9674ZM14.8584 6.19101V4.89898C14.8584 4.78054 14.7615 4.68364 14.6431 4.68364H4.30679C4.18836 4.68364 4.09145 4.78054 4.09145 4.89898V6.19101C4.09145 6.30945 4.18836 6.40635 4.30679 6.40635H14.6431C14.7615 6.40635 14.8584 6.30945 14.8584 6.19101ZM4.30679 8.55975C4.18836 8.55975 4.09145 8.65665 4.09145 8.77509V10.0671C4.09145 10.1856 4.18836 10.2825 4.30679 10.2825H9.2596C9.37804 10.2825 9.47494 10.1856 9.47494 10.0671V8.77509C9.47494 8.65665 9.37804 8.55975 9.2596 8.55975H4.30679ZM9.2596 20.8879H1.93806V1.93806H17.0118V9.90562C17.0118 10.0241 17.1087 10.121 17.2272 10.121H18.7345C18.853 10.121 18.9499 10.0241 18.9499 9.90562V0.861359C18.9499 0.38492 18.565 0 18.0885 0H0.861359C0.38492 0 0 0.38492 0 0.861359V21.9646C0 22.4411 0.38492 22.826 0.861359 22.826H9.2596C9.37804 22.826 9.47494 22.7291 9.47494 22.6107V21.1033C9.47494 20.9848 9.37804 20.8879 9.2596 20.8879ZM20.0966 12.2528L14.9284 10.4574C14.9042 10.4494 14.8827 10.4467 14.8584 10.4467C14.8342 10.4467 14.81 10.4494 14.7885 10.4574L9.6203 12.2528C9.57808 12.2672 9.54138 12.2943 9.51532 12.3305C9.48927 12.3667 9.47515 12.4101 9.47494 12.4547V19.2137C9.47494 19.281 9.50455 19.3429 9.55839 19.3833L14.7265 23.4263C14.7642 23.4559 14.8127 23.472 14.8584 23.472C14.9042 23.472 14.9526 23.4559 14.9903 23.4263L20.1585 19.3833C20.2096 19.3429 20.2419 19.281 20.2419 19.2137V12.4547C20.2419 12.3632 20.1827 12.2824 20.0966 12.2528ZM18.573 18.5111L14.8584 21.4155L11.1438 18.5111V13.4856L14.8584 12.1936L18.573 13.4856V18.5111Z" fill="white"/>
</svg>
