<svg width="633" height="884" viewBox="0 0 633 884" fill="none" xmlns="http://www.w3.org/2000/svg">
<path d="M241.806 873.281C241.219 882.924 229.903 883.018 217.065 881.237C204.227 879.456 207.637 883.349 189.655 883.671C171.674 883.993 165.48 876.826 164.609 873.735C163.832 870.997 172.491 868.688 181.757 865.978C182.92 865.641 184.091 865.287 185.259 864.931C195.72 861.737 202.623 852.353 211.557 844.128C220.023 836.356 230.942 808.214 230.942 808.214L241.821 800.669C241.821 800.669 240.338 823.701 241.274 842.993C239.534 849.631 239.425 856.591 240.956 863.279C241.61 866.571 241.896 869.926 241.806 873.281Z" fill="#F6A7A0"/>
<path d="M217.065 881.237C204.223 879.444 207.637 883.349 189.655 883.671C171.674 883.993 165.476 876.826 164.609 873.735C163.832 870.993 172.494 868.688 181.757 865.974L181.868 866.181C189.826 870.85 199.074 872.84 208.248 871.858C220.316 870.405 232.629 864.348 240.954 863.26C241.612 866.562 241.897 869.927 241.804 873.292C241.234 882.925 229.902 883.031 217.065 881.237Z" fill="#00388E"/>
<path d="M335.688 873.58C335.64 875.697 334.755 877.708 333.227 879.173C331.565 880.587 329.545 881.513 327.39 881.851C324.667 882.333 321.897 882.496 319.136 882.335C316.088 882.215 312.792 881.855 309.401 881.377C306.904 880.969 304.373 880.806 301.844 880.89C300.209 880.998 298.588 881.266 297.005 881.691C295.081 882.192 293.132 882.588 291.166 882.879C287.682 883.333 284.171 883.554 280.658 883.539C276.69 883.61 272.727 883.244 268.84 882.447C266.117 881.892 263.484 880.96 261.017 879.68C259.344 878.819 257.827 877.685 256.528 876.325C255.722 875.507 255.108 874.52 254.73 873.435C254.531 872.755 254.938 872.107 255.809 871.474C257.016 870.692 258.317 870.067 259.682 869.614C261.346 869.001 263.335 868.391 265.509 867.766C267.683 867.142 270.045 866.508 272.446 865.848L273.353 865.599L274.263 865.344L275.174 865.08L276.085 864.816C278.748 864.035 281.293 862.894 283.649 861.426C286.03 859.933 288.286 858.248 290.393 856.388C292.566 854.51 294.69 852.473 296.862 850.391C299.034 848.309 301.247 846.178 303.595 844.12C306.311 841.478 308.653 838.476 310.556 835.199C312.896 831.447 315.176 827.175 317.187 823.144C319.197 819.112 320.924 815.315 322.152 812.53C323.379 809.744 324.105 807.977 324.105 807.977L335.701 800.267C335.701 800.267 335.604 801.719 335.471 804.207C335.339 806.694 335.172 810.208 335.036 814.333C334.9 818.459 334.796 823.19 334.788 828.107C334.78 833.025 334.868 838.13 335.118 842.998C334.654 844.659 334.297 846.349 334.051 848.056C333.308 853.196 333.556 858.43 334.78 863.477C334.956 864.304 335.105 865.136 335.229 865.974C335.352 866.811 335.453 867.652 335.531 868.495C335.607 869.339 335.658 870.185 335.684 871.034C335.71 871.882 335.712 872.731 335.688 873.58Z" fill="#F6A7A0"/>
<path d="M309.402 881.263C306.902 880.871 304.371 880.725 301.843 880.827C300.206 880.947 298.585 881.228 297.003 881.666C295.081 882.18 293.132 882.591 291.166 882.896C287.684 883.378 284.174 883.626 280.659 883.638C276.695 883.739 272.731 883.402 268.841 882.633C266.12 882.101 263.487 881.191 261.017 879.93C259.345 879.082 257.828 877.958 256.528 876.607C255.721 875.793 255.106 874.808 254.73 873.725C254.531 873.052 254.938 872.405 255.81 871.762C257.016 870.971 258.318 870.337 259.684 869.873C261.348 869.247 263.338 868.622 265.505 867.983C267.673 867.344 270.04 866.692 272.441 866.012L272.557 866.216C274.665 867.378 276.857 868.38 279.114 869.216C281.341 870.04 283.628 870.694 285.954 871.172C288.27 871.648 290.62 871.945 292.982 872.061C295.36 872.176 297.743 872.108 300.111 871.856C303.319 871.462 306.498 870.856 309.626 870.043C312.777 869.251 315.878 868.313 318.867 867.389C321.856 866.465 324.719 865.541 327.394 864.793C329.812 864.072 332.279 863.527 334.776 863.164C334.952 863.992 335.102 864.826 335.227 865.665C335.352 866.503 335.453 867.346 335.53 868.191C335.605 869.037 335.656 869.885 335.683 870.735C335.709 871.585 335.709 872.436 335.683 873.288C335.636 875.409 334.754 877.425 333.227 878.897C331.569 880.318 329.552 881.257 327.396 881.61C324.675 882.113 321.904 882.296 319.14 882.156C316.09 882.056 312.793 881.72 309.402 881.263Z" fill="#00388E"/>
<path d="M252.072 845.719C252.072 845.719 258.812 594.43 270.949 541.023C283.086 487.616 270.949 508.841 270.949 508.841C270.949 508.841 214.324 511.336 202.864 491.26C202.864 491.26 175.901 518.428 183.986 845.719H252.072Z" fill="#004698"/>
<path d="M211.015 461.131C211.015 461.131 211.358 475.857 209.299 478.919C207.239 481.982 203.972 495.651 213.593 500.519C223.214 505.386 270.687 517.254 299.549 497.586C299.549 497.586 296.57 473.458 299.549 464.279C299.549 464.279 280.308 476.213 269.541 472.606C258.774 469 243.429 453.788 234.954 458.509C226.479 463.229 216.169 465.59 211.015 461.131Z" fill="#00337E"/>
<path d="M221.46 496.902C221.46 496.902 230.507 632.717 266.688 694.403C302.87 756.09 254.628 487.92 254.628 487.92L221.46 496.902Z" fill="#00337E"/>
<path d="M223.565 247.096C216.015 259.257 222.534 275.848 214.917 287.964C211.864 292.812 206.702 296.625 205.238 302.078C204.67 304.415 204.81 306.868 205.641 309.125C206.472 311.382 207.956 313.34 209.904 314.751C211.975 316.192 214.39 317.06 216.904 317.269C219.418 317.478 221.942 317.019 224.222 315.939C225.154 315.394 226.137 314.941 227.156 314.586C230.923 313.556 234.336 316.673 237.574 318.736C239.568 320.067 241.823 320.957 244.188 321.347C246.553 321.737 248.975 321.618 251.29 320.998C257.141 319.173 260.761 313.678 262.712 308.223C268.161 292.978 264.289 276.285 259.253 260.913C256.737 253.231 253.018 244.712 244.935 241.928" fill="#0D1448"/>
<path d="M70.7046 449.047C70.5805 450.736 67.8149 452.189 69.6565 455.745C73.7489 463.676 87.8663 475.268 103.151 470.217C156.552 468.531 183.304 437.206 191.09 433.366C203.845 427.074 220.529 407.042 234.91 359.091C238.343 347.651 237.004 334.195 225.502 328.404C222.128 329.433 218.992 331.123 216.277 333.374C213.561 335.625 211.32 338.393 209.683 341.518C200.161 358.263 171.649 413.714 165.327 415.798C156.086 423.158 147.977 432.586 109.928 449.444C108.741 449.984 107.454 450.269 106.15 450.279C104.846 450.29 103.554 450.026 102.358 449.505C100.846 448.81 100.114 447.848 98.5553 445.131C95.0755 438.434 95.0199 440.397 89.9269 434.649C88.2662 433.065 69.8863 423.895 69.8863 426.906C69.8863 428.648 75.2817 433.262 82.3272 437.423C83.1039 437.942 83.6986 438.69 84.0286 439.564C85.2259 441.766 70.8593 437.724 69.6646 442.355C69.4573 443.015 70.7693 448.166 70.7046 449.047Z" fill="#F6A7A0"/>
<path d="M228.846 326.504C223.632 327.567 218.704 329.729 214.391 332.846C210.079 335.963 206.48 339.964 203.836 344.582C202.563 346.942 201.426 349.373 200.43 351.862C195.969 362.439 189.835 372.006 185.373 382.578C191.433 386.541 198.08 389.526 205.069 391.422C210.955 393.451 217.199 394.235 223.404 393.723C224.46 393.679 225.501 393.465 226.489 393.089C227.721 392.463 228.811 391.588 229.688 390.519C231.598 388.478 233.456 386.397 235.261 384.274C236.914 382.569 238.189 380.536 239.005 378.306C239.588 375.184 239.284 371.961 238.126 369.004" fill="#A9DFF2"/>
<path opacity="0.13" d="M217.898 355.947C218.274 355.459 218.761 355.069 219.32 354.809C219.888 354.655 220.492 354.694 221.036 354.919C221.581 355.144 222.036 355.542 222.331 356.052C222.838 357.059 223.055 358.186 222.956 359.309C222.903 363.613 222.183 367.883 220.823 371.966L222.245 394.267L222.213 394.313C216.401 394.656 210.578 393.865 205.069 391.982C202.479 391.086 199.688 390.159 196.872 389.097C199.755 376.531 208.947 365.888 217.898 355.947Z" fill="#46808F"/>
<path d="M255.016 301.872C255.016 301.872 255.335 317.724 253.036 318.76C249.909 320.105 246.667 321.166 243.35 321.928L243.197 354.724L284.561 348.133L312.998 331.39C312.998 331.39 283.427 321.021 283.171 317.907C282.915 314.793 284.799 297.247 284.799 297.247" fill="#F6A7A0"/>
<path d="M205.278 387.273C205.517 397.54 211.35 403.801 219.709 412.444C220.626 413.764 219.278 430.546 214.453 445.61C213.121 449.888 212.123 454.263 211.469 458.695C210.772 463.157 209.521 465.877 211.795 466.352C223.835 476.192 285.076 484.716 304.975 471.289C302.891 454.738 309.36 417.896 314.695 399.357C315.526 396.503 314.759 393.117 315.423 391.259C320.4 377.178 326.908 332.117 320.266 330.137C318.945 329.741 317.08 327.948 314.695 327.271C304.295 324.331 288.927 319.284 288.927 319.284C288.927 319.284 279.722 345.564 256.286 348.582C243.49 343.644 244.62 328.485 244.769 321.519C240.586 322.6 238.744 323.678 225.778 327.275C222.145 332.187 225.284 342.434 219.408 357.713C217.951 361.508 204.994 374.768 205.278 387.273Z" fill="#A9DFF2"/>
<path d="M225.093 244.292C225.093 244.292 222.716 271.283 227.667 285.432C231.327 295.908 246.356 305.688 258.922 305.558C293.518 305.558 299.721 261.777 299.543 259.661C299.365 257.545 248.515 239.169 248.515 239.169L225.093 244.292Z" fill="#F6A7A0"/>
<path d="M317.543 324.398C318.315 324.013 319.068 323.598 319.801 323.192C323.831 321.48 327.118 318.388 329.074 314.471C331.477 308.424 332.63 299.142 329.27 293.279C326.989 289.308 322.711 286.705 319.775 283.133C316.089 278.001 314.128 271.83 314.177 265.512C314.262 259.286 313.812 253.064 312.83 246.915C310.438 236.519 307.257 226.613 298.651 219.915C284.873 209.18 257.255 202.823 242.233 214.79C239.503 216.966 238.966 218.715 235.28 219.064C230.869 219.22 226.554 220.394 222.672 222.496C217.745 225.152 211.766 228.892 212.457 234.921C213.866 240.203 217.224 244.755 221.854 247.662C223.518 248.429 225.334 248.808 227.165 248.77C233.02 248.876 237.878 245.33 243.63 245.901C246.416 246.197 248.989 247.529 250.839 249.632C252.912 252.008 252.616 255.334 255.044 257.553C258.922 261.125 264.936 260.82 269.532 263.139C270.314 263.464 270.997 263.989 271.512 264.662C271.876 265.372 272.049 266.165 272.012 266.963L272.276 273.723C274.557 272.79 274.793 269.78 276.672 268.249C277.667 267.597 278.845 267.283 280.032 267.354C281.218 267.426 282.351 267.878 283.26 268.644C284.956 270.188 286.074 272.265 286.428 274.531C286.714 277.287 286.273 280.07 285.149 282.603C283.645 287.205 279.416 291.34 276.003 288.3C273.515 291.695 276.234 297.361 276.322 301.193C276.398 304.237 276.322 310.268 273.286 312.266C270.478 314.115 266.026 312.714 265.854 317.451C266.148 319.685 267.226 321.741 268.897 323.253C270.568 324.765 272.722 325.633 274.975 325.703C279.625 325.841 284.26 325.088 288.627 323.485C293.02 321.883 297.797 321.665 302.317 322.86C304.768 324.181 307.341 325.259 310.001 326.081C312.629 326.314 315.264 325.726 317.543 324.398Z" fill="#0D1448"/>
<path d="M244.759 485.529C246.222 485.529 247.408 484.343 247.408 482.881C247.408 481.418 246.222 480.233 244.759 480.233C243.297 480.233 242.111 481.418 242.111 482.881C242.111 484.343 243.297 485.529 244.759 485.529Z" fill="#F48354"/>
<path d="M247.408 502.285C248.87 502.285 250.056 501.1 250.056 499.637C250.056 498.175 248.87 496.989 247.408 496.989C245.945 496.989 244.76 498.175 244.76 499.637C244.76 501.1 245.945 502.285 247.408 502.285Z" fill="#F48354"/>
<path d="M247.344 485.161C248.807 485.161 249.993 483.975 249.993 482.513C249.993 481.05 248.807 479.865 247.344 479.865C245.882 479.865 244.696 481.05 244.696 482.513C244.696 483.975 245.882 485.161 247.344 485.161Z" fill="#F48354"/>
<path d="M247.344 493.997C248.807 493.997 249.993 492.811 249.993 491.348C249.993 489.886 248.807 488.7 247.344 488.7C245.882 488.7 244.696 489.886 244.696 491.348C244.696 492.811 245.882 493.997 247.344 493.997Z" fill="#F48354"/>
<path d="M234.31 497.901L229.407 482.192L319.72 437.753C319.72 437.753 301.138 388.455 294.638 374.024C287.485 358.154 291.584 358.1 297.797 345.32C301.493 343.789 335.185 362.349 335.308 364.431C336.647 388.548 355.912 445.902 350.866 457.153C345.025 470.141 234.31 497.901 234.31 497.901Z" fill="#F6A7A0"/>
<path d="M239.958 478.23C239.958 478.23 220.378 486.091 216.606 485.452C212.834 484.813 209.232 483.324 205.417 482.91C199.838 482.291 194.233 483.812 189.731 487.165C189.717 487.174 186.134 488.535 186.384 490.762C184.431 496.834 187.231 503.364 190.59 507.791C204.919 526.685 223.174 502.731 223.725 501.844C224.87 500.009 242.116 496.145 242.116 496.145" fill="#F6A7A0"/>
<path d="M190.442 490.911C195.64 492.48 200.077 495.912 202.904 500.548C203.695 502.038 204.358 503.592 204.884 505.195C205.231 505.94 205.352 506.771 205.231 507.584C204.657 509.049 203.535 510.232 202.104 510.885C200.514 511.871 198.663 512.351 196.794 512.263C195.579 512.084 194.466 511.48 193.655 510.558C192.844 509.635 192.386 508.455 192.364 507.227C192.368 506.988 192.282 506.756 192.124 506.577C191.739 506.353 191.29 506.264 190.85 506.326C189.005 506.461 187.158 506.096 185.503 505.27C185.176 505.102 184.889 504.867 184.659 504.58C184.43 504.292 184.264 503.96 184.172 503.604C184.081 503.248 184.066 502.877 184.128 502.514C184.191 502.152 184.329 501.808 184.534 501.503C184.577 501.443 184.621 501.386 184.666 501.331C185.123 500.775 185.854 500.095 185.433 499.633C185.256 499.487 185.047 499.386 184.822 499.339C183.353 498.88 182.126 497.856 181.411 496.493C181.32 496.342 181.263 496.174 181.241 496C181.22 495.825 181.236 495.648 181.288 495.48C181.422 495.204 181.614 494.961 181.851 494.766C182.739 493.932 183.744 493.232 184.834 492.687" fill="#F6A7A0"/>
<path d="M315.158 327.949C315.158 327.949 328.023 333.337 331.566 339.854C335.11 346.372 343.113 396.378 343.113 396.378C341.806 399.057 339.924 401.415 337.6 403.283C335.277 405.151 332.57 406.483 329.673 407.185C323.315 408.665 316.699 408.633 310.356 407.093C310.356 407.093 299.379 389.385 294.532 380.72C291.51 375.317 286.937 383.806 286.937 383.806L273.541 352.893L315.158 327.949Z" fill="#A9DFF2"/>
<path d="M236.565 845.719C236.565 845.719 242.487 654.614 253.056 612.146" stroke="#28A7E3" stroke-miterlimit="10"/>
<path d="M243.791 504.968C243.791 504.968 245.475 592.199 252.554 639.372C259.632 686.545 273.451 831.525 270.081 849.561H347.377C347.377 849.561 328.909 561.072 299.494 497.901C299.494 497.901 263.339 513.466 243.791 504.968Z" fill="#004698"/>
<path d="M339.31 849.208C339.31 849.208 320.125 726.324 320.125 685.997C320.125 645.67 306.739 521.186 295.585 510.165" stroke="#28A7E3" stroke-miterlimit="10"/>
<path d="M289.954 502.859C289.954 502.859 298.343 517.116 297.668 524.192C296.994 531.267 306.365 539.809 306.365 539.809" stroke="#28A7E3" stroke-miterlimit="10"/>
<path d="M442.41 25.9067C449.249 18.6596 457.368 12.9101 466.305 8.98659C475.242 5.06307 484.822 3.04237 494.496 3.03979C504.17 3.04237 513.75 5.06307 522.687 8.98659C531.624 12.9101 539.743 18.6596 546.583 25.9067C553.422 33.1538 558.846 41.7569 562.546 51.2243C566.246 60.6918 568.149 70.8383 568.147 81.0848V774.107" stroke="#BDE6F5" stroke-width="6" stroke-miterlimit="10"/>
<path d="M564.111 773.051L509.359 821.256C506.956 823.38 505.257 826.186 504.487 829.299C503.717 832.412 503.913 835.686 505.049 838.685C506.185 841.684 508.207 844.267 510.846 846.089C513.484 847.912 516.615 848.888 519.822 848.888H617.064C620.108 848.89 623.082 847.969 625.592 846.245C628.102 844.522 630.03 842.078 631.122 839.236C632.214 836.394 632.419 833.288 631.708 830.327C630.998 827.367 629.407 824.691 627.144 822.654L572.032 773.051H564.111Z" fill="#4964CE"/>
<path opacity="0.43" d="M286.788 444.991C286.77 444.017 287.139 443.076 287.815 442.375C288.491 441.673 289.417 441.269 290.391 441.25H404.502C405.475 441.269 406.402 441.674 407.077 442.375C407.753 443.077 408.122 444.018 408.104 444.991L392.289 517.616C392.307 518.59 391.938 519.53 391.262 520.232C390.587 520.933 389.66 521.337 388.687 521.356H275.167C274.194 521.337 273.268 520.933 272.592 520.232C271.917 519.53 271.547 518.59 271.565 517.616L286.788 444.991ZM382.032 469.539C382.032 469.102 381.946 468.67 381.78 468.267C381.613 467.864 381.368 467.498 381.06 467.19C380.751 466.881 380.385 466.636 379.982 466.469C379.579 466.302 379.147 466.216 378.711 466.216H312.401C311.52 466.216 310.675 466.566 310.052 467.189C309.429 467.812 309.078 468.657 309.078 469.539C309.078 469.975 309.164 470.407 309.331 470.81C309.498 471.213 309.743 471.579 310.052 471.888C310.36 472.196 310.727 472.441 311.13 472.608C311.533 472.775 311.965 472.86 312.401 472.86H378.711C379.147 472.86 379.579 472.774 379.982 472.607C380.385 472.44 380.751 472.196 381.059 471.887C381.368 471.579 381.612 471.213 381.779 470.81C381.946 470.407 382.032 469.975 382.032 469.539ZM306.034 490.027H372.342C372.779 490.027 373.211 489.942 373.614 489.775C374.017 489.608 374.384 489.363 374.693 489.054C375.001 488.746 375.246 488.379 375.413 487.976C375.58 487.573 375.667 487.141 375.667 486.704C375.667 486.268 375.58 485.836 375.413 485.433C375.246 485.03 375.001 484.663 374.693 484.355C374.384 484.046 374.017 483.802 373.614 483.635C373.211 483.468 372.779 483.383 372.342 483.383H306.034C305.598 483.383 305.166 483.468 304.763 483.635C304.36 483.802 303.993 484.047 303.685 484.355C303.376 484.664 303.131 485.03 302.964 485.433C302.797 485.836 302.711 486.268 302.711 486.704C302.712 487.585 303.063 488.429 303.686 489.051C304.309 489.674 305.154 490.023 306.034 490.023V490.027Z" fill="url(#paint0_linear_130_2647)"/>
<path opacity="0.38" d="M180.931 535.345L147.988 470.131C147.816 469.762 147.708 469.366 147.669 468.96C147.545 467.889 147.036 466.899 146.237 466.175C145.437 465.451 144.402 465.042 143.323 465.025H4.40588C3.81822 465.024 3.23691 465.146 2.69901 465.383C2.18806 465.634 1.73304 465.986 1.36149 466.417C0.989943 466.849 0.709368 467.351 0.536742 467.893C0.364116 468.436 0.302951 469.008 0.356902 469.574C0.410853 470.141 0.578771 470.691 0.850656 471.191L34.746 536.894C35.4774 539.337 39.4166 541.448 41.8391 541.448H177.329C178.114 541.448 178.883 541.231 179.551 540.821C180.419 540.241 181.04 539.36 181.294 538.349C181.549 537.337 181.42 536.267 180.931 535.345ZM134.082 500.117C134.082 500.662 133.975 501.203 133.766 501.708C133.557 502.212 133.251 502.67 132.865 503.057C132.479 503.443 132.021 503.748 131.516 503.957C131.012 504.166 130.471 504.274 129.925 504.273H48.3591C47.2566 504.273 46.1993 503.835 45.4198 503.056C44.6402 502.276 44.2021 501.219 44.2021 500.117C44.2021 499.014 44.6402 497.956 45.4198 497.177C46.1993 496.397 47.2566 495.96 48.3591 495.96H129.925C130.471 495.959 131.012 496.067 131.516 496.275C132.021 496.484 132.479 496.791 132.865 497.177C133.251 497.563 133.557 498.021 133.766 498.525C133.975 499.03 134.082 499.571 134.082 500.117Z" fill="url(#paint1_linear_130_2647)"/>
<path opacity="0.54" d="M291.972 415.371L321.874 360.85C322.029 360.544 322.128 360.212 322.165 359.871C322.317 358.941 322.799 358.096 323.523 357.492C324.247 356.887 325.165 356.564 326.108 356.58H452.2C452.731 356.579 453.257 356.681 453.75 356.88C454.202 357.063 454.609 357.34 454.944 357.694C455.28 358.047 455.535 358.469 455.694 358.929C455.852 359.39 455.91 359.879 455.863 360.364C455.816 360.849 455.666 361.319 455.423 361.741L424.657 416.676C423.997 418.72 420.418 420.483 418.219 420.483H295.238C294.531 420.484 293.836 420.302 293.221 419.955C292.448 419.513 291.882 418.781 291.648 417.921C291.413 417.061 291.53 416.144 291.972 415.371ZM334.496 385.915C334.537 386.875 334.957 387.781 335.664 388.432C336.371 389.084 337.308 389.428 338.269 389.39H412.305C413.266 389.428 414.202 389.083 414.909 388.432C415.616 387.78 416.036 386.875 416.078 385.915C416.036 384.954 415.616 384.049 414.909 383.397C414.202 382.746 413.266 382.401 412.305 382.439H338.269C337.308 382.401 336.371 382.745 335.664 383.397C334.957 384.049 334.537 384.954 334.496 385.915Z" fill="url(#paint2_linear_130_2647)"/>
<path opacity="0.38" d="M182.606 348.285C182.628 347.099 182.178 345.954 181.356 345.1C180.533 344.246 179.406 343.753 178.22 343.73H39.3017C38.1164 343.753 36.9885 344.246 36.1661 345.1C35.3438 345.954 34.8944 347.099 34.9163 348.285L54.1701 436.697C54.1482 437.882 54.598 439.028 55.4203 439.881C56.2427 440.735 57.3704 441.227 58.5556 441.25H196.753C197.939 441.227 199.066 440.735 199.889 439.881C200.712 439.028 201.162 437.882 201.14 436.697L182.606 348.285ZM66.6558 378.168C66.6558 377.095 67.082 376.067 67.8406 375.308C68.5991 374.55 69.6279 374.123 70.7006 374.123H151.424C152.497 374.123 153.526 374.55 154.285 375.308C155.043 376.067 155.469 377.095 155.469 378.168C155.469 379.241 155.043 380.27 154.285 381.028C153.526 381.787 152.497 382.213 151.424 382.213H70.7006C69.6285 382.212 68.6009 381.785 67.8432 381.027C67.0855 380.269 66.6597 379.24 66.6597 378.168H66.6558ZM159.176 403.109H78.4524C77.9213 403.109 77.3954 403.004 76.9048 402.801C76.4141 402.598 75.9682 402.3 75.5927 401.925C75.2172 401.549 74.9195 401.103 74.7164 400.612C74.5133 400.121 74.4088 399.596 74.4089 399.065C74.4089 397.992 74.8347 396.963 75.593 396.205C76.3513 395.447 77.38 395.021 78.4524 395.021H159.176C159.707 395.021 160.233 395.125 160.724 395.328C161.215 395.531 161.661 395.829 162.036 396.205C162.412 396.58 162.71 397.026 162.913 397.517C163.116 398.007 163.221 398.533 163.221 399.065C163.221 400.137 162.796 401.165 162.038 401.923C161.28 402.682 160.252 403.108 159.18 403.109H159.176Z" fill="url(#paint3_linear_130_2647)"/>
<path d="M126.944 733.133C126.944 725.128 106.521 718.64 81.3283 718.64C56.1352 718.64 35.7144 725.128 35.7144 733.133C35.755 734.034 35.9287 734.924 36.2294 735.773C39.3977 750.988 41.7856 762.856 45.9981 782.007C51.1532 805.413 50.8943 839.415 50.6501 850.496C50.614 851.772 50.8802 853.038 51.4265 854.192C52.6305 858.944 65.5517 862.686 81.3232 862.686C86.6322 862.714 91.9323 862.25 97.1552 861.297C98.3433 861.1 99.5105 860.888 100.601 860.653C103.264 860.259 105.797 859.242 107.993 857.685C110.115 856.422 111.321 854.988 111.321 853.461L112.285 830.311C111.386 806.043 121.498 758.912 126.216 737.342C126.376 736.61 126.445 736.128 126.612 735.295C126.816 734.592 126.927 733.865 126.944 733.133Z" fill="#A8DFF2"/>
<path d="M81.3283 740.95C103.392 740.95 121.278 736.724 121.278 731.512C121.278 726.3 103.392 722.075 81.3283 722.075C59.2649 722.075 41.3789 726.3 41.3789 731.512C41.3789 736.724 59.2649 740.95 81.3283 740.95Z" fill="url(#paint4_linear_130_2647)"/>
<path d="M112.096 853.506C112.119 850.951 112.188 849.729 112.104 847.37C112.055 845.993 112.053 844.525 111.972 842.928C110.338 810.944 124.302 747.176 124.302 747.176C114.955 748.911 98.8236 769.707 87.3597 802.064C75.8958 834.422 51.4075 831.899 51.4075 831.899L50.8796 832.039C51.5396 840.171 50.7897 846.402 50.6221 853.975C50.6238 854.061 50.6447 854.146 50.683 854.222C50.645 854.368 50.6245 854.518 50.6221 854.669C50.6221 858.743 64.3883 862.045 81.3689 862.045C98.3496 862.045 112.117 858.745 112.117 854.669C112.121 854.421 112.094 853.76 112.096 853.506Z" fill="#00B7FF"/>
<path d="M109.573 639.656C109.573 639.656 94.2376 661.396 94.4065 673.187C94.5755 684.978 83.4495 713.632 80.5875 714.307C77.7255 714.982 74.3514 742.954 83.1143 732.508C91.8772 722.062 97.4389 710.431 98.9557 693.41C100.473 676.388 107.382 672.85 108.393 668.131C109.404 663.411 109.573 639.656 109.573 639.656Z" fill="#3EAE7D"/>
<path d="M74.3358 733.991C71.7363 718.285 64.0435 703.869 52.443 692.966C33.1191 674.99 27.2775 663.081 41.4331 671.17C55.5887 679.258 91.9594 711.202 74.3358 733.991Z" fill="#3EAE7D"/>
<path d="M125.667 659.776C125.667 659.776 123.906 672.005 118.739 678.411C113.572 684.816 104.878 705.781 95.1382 711.139C85.3984 716.497 73.5344 739.441 86.9191 730.822C100.304 722.203 111.93 706.998 115.1 696.257C118.269 685.517 125.315 679.809 126.607 676.896C127.899 673.984 129.307 668.395 125.667 659.776Z" fill="#F9B200"/>
<path d="M72.1613 612.092C72.1613 612.092 85.8111 670.232 79.9128 734.778C79.9128 734.778 75.2781 734.609 75.5315 726.773C75.785 718.937 71.3177 685.568 66.9363 677.48C62.5548 669.391 64.9138 649.167 68.9587 638.55C73.0035 627.932 72.1613 612.092 72.1613 612.092Z" fill="#F9B200"/>
<path d="M409.234 88.3318C418.3 93.3587 429.724 90.0847 434.751 81.019C439.778 71.9534 436.504 60.5291 427.438 55.5023C418.373 50.4754 406.948 53.7494 401.921 62.815C396.895 71.8807 400.169 83.3049 409.234 88.3318Z" fill="#F9B200"/>
<path d="M431.552 35.1663L380.523 46.5699L460.846 91.1093L441.432 40.6443L431.552 35.1663Z" fill="#97D9EF"/>
<path d="M450.183 24.339L441.825 19.7048C439.398 18.3592 436.34 19.2356 434.995 21.6624L428.998 32.4766C427.653 34.9034 428.529 37.9615 430.956 39.3072L439.313 43.9414C441.74 45.287 444.798 44.4106 446.144 41.9839L452.14 31.1696C453.486 28.7428 452.609 25.6847 450.183 24.339Z" fill="#024A9B"/>
<defs>
<linearGradient id="paint0_linear_130_2647" x1="484.704" y1="468.246" x2="337.52" y2="583.913" gradientUnits="userSpaceOnUse">
<stop offset="0.183" stop-color="white" stop-opacity="0.502"/>
<stop offset="1" stop-color="#447ABE"/>
</linearGradient>
<linearGradient id="paint1_linear_130_2647" x1="144.481" y1="461.204" x2="120.581" y2="566.31" gradientUnits="userSpaceOnUse">
<stop stop-color="white" stop-opacity="0.502"/>
<stop offset="1" stop-color="#447ABE"/>
</linearGradient>
<linearGradient id="paint2_linear_130_2647" x1="378.635" y1="351.403" x2="361.076" y2="442.335" gradientUnits="userSpaceOnUse">
<stop stop-color="white" stop-opacity="0.502"/>
<stop offset="1" stop-color="#447ABE"/>
</linearGradient>
<linearGradient id="paint3_linear_130_2647" x1="181.859" y1="342.463" x2="122.954" y2="476.548" gradientUnits="userSpaceOnUse">
<stop stop-color="white" stop-opacity="0.502"/>
<stop offset="1" stop-color="#447ABE"/>
</linearGradient>
<linearGradient id="paint4_linear_130_2647" x1="106.337" y1="731.512" x2="186.235" y2="731.512" gradientUnits="userSpaceOnUse">
<stop stop-color="white" stop-opacity="0.502"/>
<stop offset="1" stop-color="#447ABE"/>
</linearGradient>
</defs>
</svg>
