<svg width="204" height="43" viewBox="0 0 204 43" fill="none" xmlns="http://www.w3.org/2000/svg">
<mask id="path-1-outside-1_536_7149" maskUnits="userSpaceOnUse" x="-0.263916" y="-0.682098" width="23" height="26" fill="black">
<rect fill="white" x="-0.263916" y="-0.682098" width="23" height="26"/>
<path d="M16.1575 21.5571L14.1804 24.5112C14.1804 24.5112 4.69626 25.3331 1.40878 16.0084C-1.8787 6.68368 7.67246 -0.343353 13.0032 0.367407L12.9184 3.69899C11.8555 3.66076 10.8066 3.94987 9.9134 4.52721C9.02022 5.10456 8.32591 5.94229 7.92437 6.9271C6.48843 10.4046 8.25006 14.2713 12.25 14.7158C16.2499 15.1602 19.9793 15.1746 21.4449 16.4333L18.5875 18.9507C17.1643 18.3381 15.6177 18.0669 14.071 18.1585C10.9616 18.1585 6.09827 17.714 4.25352 11.0288C4.25352 11.0288 2.10682 21.0533 16.1583 21.5571"/>
</mask>
<path d="M16.1575 21.5571L14.1804 24.5112C14.1804 24.5112 4.69626 25.3331 1.40878 16.0084C-1.8787 6.68368 7.67246 -0.343353 13.0032 0.367407L12.9184 3.69899C11.8555 3.66076 10.8066 3.94987 9.9134 4.52721C9.02022 5.10456 8.32591 5.94229 7.92437 6.9271C6.48843 10.4046 8.25006 14.2713 12.25 14.7158C16.2499 15.1602 19.9793 15.1746 21.4449 16.4333L18.5875 18.9507C17.1643 18.3381 15.6177 18.0669 14.071 18.1585C10.9616 18.1585 6.09827 17.714 4.25352 11.0288C4.25352 11.0288 2.10682 21.0533 16.1583 21.5571" fill="#0CA750"/>
<path d="M14.1804 24.5112L14.1977 24.7105L14.2933 24.7022L14.3466 24.6225L14.1804 24.5112ZM13.0032 0.367407L13.2031 0.372497L13.2077 0.192905L13.0296 0.169162L13.0032 0.367407ZM12.9184 3.69899L12.9112 3.89886L13.1131 3.90613L13.1183 3.70408L12.9184 3.69899ZM7.92437 6.9271L8.10923 7.00344L8.10956 7.00261L7.92437 6.9271ZM21.4449 16.4333L21.5771 16.5834L21.7497 16.4314L21.5752 16.2816L21.4449 16.4333ZM18.5875 18.9507L18.5084 19.1344L18.6247 19.1844L18.7197 19.1007L18.5875 18.9507ZM14.071 18.1585V18.3588L14.0828 18.3581L14.071 18.1585ZM4.25352 11.0288L4.44631 10.9756L4.05795 10.9869L4.25352 11.0288ZM15.9913 21.4458L14.0142 24.4L14.3466 24.6225L16.3237 21.6683L15.9913 21.4458ZM14.1804 24.5112C14.1632 24.312 14.1632 24.312 14.1632 24.312C14.1632 24.312 14.1632 24.312 14.1631 24.312C14.163 24.312 14.1627 24.312 14.1622 24.312C14.1613 24.3121 14.1599 24.3122 14.1579 24.3124C14.1538 24.3127 14.1475 24.3132 14.1391 24.3138C14.1221 24.315 14.0964 24.3166 14.0625 24.3185C13.9945 24.3221 13.8935 24.3263 13.7633 24.3283C13.5027 24.3325 13.1254 24.3283 12.6617 24.2945C11.7339 24.2267 10.4634 24.0406 9.09265 23.5675C6.35608 22.6231 3.2169 20.5355 1.5974 15.9419L1.22016 16.0749C2.88813 20.806 6.13478 22.9698 8.96215 23.9456C10.3734 24.4327 11.6794 24.6238 12.6326 24.6934C13.1094 24.7282 13.4987 24.7326 13.7697 24.7283C13.9052 24.7261 14.0111 24.7218 14.0837 24.7179C14.12 24.716 14.148 24.7141 14.1672 24.7128C14.1767 24.7121 14.1841 24.7116 14.1892 24.7112C14.1918 24.711 14.1938 24.7108 14.1952 24.7107C14.1959 24.7106 14.1964 24.7106 14.1969 24.7105C14.1971 24.7105 14.1973 24.7105 14.1974 24.7105C14.1976 24.7105 14.1977 24.7105 14.1804 24.5112ZM1.5974 15.9419C-0.0164275 11.3644 1.51651 7.35238 4.1204 4.56102C5.42339 3.16421 6.99201 2.0768 8.56122 1.38309C10.1327 0.688377 11.6913 0.394255 12.9767 0.565653L13.0296 0.169162C11.6497 -0.014821 10.0154 0.302901 8.39948 1.01725C6.78132 1.7326 5.1681 2.85148 3.8279 4.28817C1.1454 7.16381 -0.453501 11.3277 1.22016 16.0749L1.5974 15.9419ZM12.8032 0.362317L12.7184 3.6939L13.1183 3.70408L13.2031 0.372497L12.8032 0.362317ZM12.9255 3.49912C11.8218 3.45942 10.7324 3.75966 9.80482 4.35925L10.022 4.69518C10.8807 4.14007 11.8893 3.8621 12.9112 3.89886L12.9255 3.49912ZM9.80482 4.35925C8.87724 4.95884 8.15618 5.82884 7.73917 6.85159L8.10956 7.00261C8.49564 6.05574 9.1632 5.25028 10.022 4.69518L9.80482 4.35925ZM7.73951 6.85077C7.00067 8.64005 7.08117 10.5382 7.87145 12.0514C8.66362 13.5682 10.1627 14.6851 12.2279 14.9146L12.2721 14.517C10.3374 14.302 8.95566 13.2633 8.22601 11.8662C7.49447 10.4656 7.41213 8.69163 8.10923 7.00344L7.73951 6.85077ZM12.2279 14.9146C14.2478 15.139 16.1533 15.2506 17.7713 15.4674C18.5746 15.5751 19.2913 15.7071 19.895 15.888C20.5001 16.0694 20.9782 16.2961 21.3146 16.585L21.5752 16.2816C21.1789 15.9412 20.6411 15.6941 20.0098 15.5049C19.377 15.3152 18.6366 15.1798 17.8244 15.071C16.2113 14.8548 14.2522 14.737 12.2721 14.517L12.2279 14.9146ZM21.3127 16.2832L18.4553 18.8006L18.7197 19.1007L21.5771 16.5834L21.3127 16.2832ZM18.6665 18.767C17.2147 18.1421 15.637 17.8654 14.0592 17.9588L14.0828 18.3581C15.5984 18.2684 17.1139 18.5342 18.5084 19.1344L18.6665 18.767ZM14.071 17.9585C12.5223 17.9585 10.5701 17.8465 8.77973 16.9229C6.99943 16.0044 5.35547 14.2703 4.44631 10.9756L4.06072 11.082C4.99631 14.4725 6.70642 16.3033 8.59633 17.2783C10.4762 18.2482 12.5103 18.3585 14.071 18.3585V17.9585ZM4.25352 11.0288C4.05795 10.9869 4.05791 10.9871 4.05787 10.9873C4.05784 10.9874 4.05779 10.9877 4.05774 10.9879C4.05764 10.9884 4.05751 10.989 4.05734 10.9898C4.05702 10.9914 4.05657 10.9935 4.05601 10.9963C4.05489 11.0018 4.05331 11.0098 4.05135 11.02C4.04743 11.0405 4.04199 11.0702 4.03557 11.1086C4.02275 11.1853 4.00605 11.2967 3.99 11.438C3.95791 11.7204 3.92834 12.1229 3.93769 12.6069C3.95636 13.5739 4.13055 14.8726 4.75594 16.1898C6.01582 18.8434 9.07182 21.5031 16.1512 21.7569L16.1655 21.3572C9.19333 21.1072 6.29692 18.5028 5.11728 16.0182C4.5229 14.7663 4.35554 13.5274 4.33761 12.5991C4.32866 12.1355 4.35702 11.7509 4.38744 11.4831C4.40264 11.3493 4.41834 11.2448 4.4301 11.1745C4.43598 11.1393 4.44087 11.1127 4.44422 11.0952C4.4459 11.0864 4.44718 11.08 4.44802 11.0759C4.44843 11.0738 4.44874 11.0723 4.44892 11.0715C4.44901 11.0711 4.44907 11.0708 4.44909 11.0706C4.44911 11.0706 4.44911 11.0706 4.44911 11.0706C4.4491 11.0706 4.44908 11.0707 4.25352 11.0288Z" fill="#0CA750" mask="url(#path-1-outside-1_536_7149)"/>
<path d="M20.6272 26.6216L20.6687 26.5577L20.5848 26.5032L20.6687 26.5577L20.6688 26.5576L20.6691 26.557L20.6706 26.5547L20.6769 26.5452L20.7022 26.5074C20.7246 26.474 20.7583 26.4246 20.8028 26.3609C20.8919 26.2335 21.0243 26.049 21.1974 25.8216C21.5436 25.3667 22.0522 24.7402 22.7008 24.0547C23.9991 22.6827 25.8539 21.0795 28.0875 20.1392C30.3354 19.1929 31.824 18.7365 32.9548 18.5162C34.0178 18.3091 34.7675 18.3098 35.5439 18.3107C35.5924 18.3107 35.641 18.3108 35.6898 18.3108C35.7259 18.3108 35.7643 18.3108 35.8048 18.3109C36.693 18.3129 38.6107 18.3172 40.5501 17.4655C42.4997 16.6093 44.464 14.8914 45.4385 11.4631C45.5919 12.6142 45.5029 13.7865 45.1752 14.9041C44.8038 16.1709 44.1364 17.3312 43.2281 18.2891C41.6614 19.8995 40.4006 20.576 39.0962 20.8817C38.4414 21.0351 37.7725 21.0958 37.0423 21.1319C36.7551 21.146 36.4567 21.1564 36.146 21.1672C35.6714 21.1837 35.1681 21.2012 34.6318 21.2347C32.8384 21.3469 30.5364 21.996 28.3536 23.213C26.1704 24.4303 24.1003 26.2194 22.7788 28.6161L22.7406 28.6853L22.7992 28.7384L25.1978 30.9148L25.2848 30.9938L25.3488 30.8953L25.265 30.8408L25.3488 30.8952L25.3489 30.8951L25.3494 30.8944L25.3513 30.8915L25.3593 30.8794C25.3665 30.8686 25.3774 30.8524 25.3919 30.8312C25.4209 30.7887 25.4645 30.7262 25.5223 30.6462C25.6378 30.4862 25.8102 30.2568 26.0367 29.9798C26.4897 29.4258 27.1589 28.6824 28.0227 27.9253C29.7512 26.4103 32.2522 24.8469 35.3558 24.6285C35.5797 24.6127 35.7978 24.5976 36.0104 24.5829C38.7642 24.3924 40.5909 24.266 42.1665 23.5768C43.8701 22.8315 45.2713 21.4339 47.2496 18.6323C49.2478 15.8027 49.6916 11.4448 48.1354 7.67372C46.5762 3.89543 43.0107 0.707226 36.9981 0.218231L36.89 0.209439V0.317902V3.47816V3.56644L36.9776 3.57738L36.9776 3.57739L36.9776 3.57739L36.9781 3.57744L36.9801 3.5777L36.9886 3.57885L37.023 3.58389C37.0535 3.58855 37.0987 3.59591 37.1568 3.60659C37.273 3.62797 37.4404 3.66267 37.6443 3.71577C38.0523 3.82201 38.6047 4.00156 39.1826 4.29454C40.3385 4.88063 41.588 5.91558 42.001 7.72008C42.418 9.54179 42.1417 11.2441 41.2834 12.4827C40.4268 13.7187 38.9824 14.5049 37.0352 14.4832L37.0344 14.4832C33.0761 14.4719 29.1802 15.4697 25.7145 17.3822C22.2489 19.2947 19.3278 22.0588 17.227 25.4137L17.1585 25.5231L17.2816 25.5621L20.5546 26.5986L20.6272 26.6216Z" fill="#0CA750" stroke="#0CA750" stroke-width="0.2"/>
<mask id="path-4-outside-2_536_7149" maskUnits="userSpaceOnUse" x="24.4429" y="25.9758" width="14" height="17" fill="black">
<rect fill="white" x="24.4429" y="25.9758" width="14" height="17"/>
<path d="M37.6573 30.397V26.9764C37.6573 26.9764 27.8992 26.71 27.129 37.7268C27.129 37.9547 27.0385 38.1732 26.8774 38.3344C26.7162 38.4955 26.4977 38.586 26.2698 38.586H25.4581L25.4429 42.4341C26.5085 42.4501 27.5508 42.1217 28.4148 41.4977C29.2788 40.8738 29.9184 39.9877 30.2384 38.9711C31.4521 35.3282 30.09 31.3902 37.6564 30.3979"/>
</mask>
<path d="M37.6573 30.397V26.9764C37.6573 26.9764 27.8992 26.71 27.129 37.7268C27.129 37.9547 27.0385 38.1732 26.8774 38.3344C26.7162 38.4955 26.4977 38.586 26.2698 38.586H25.4581L25.4429 42.4341C26.5085 42.4501 27.5508 42.1217 28.4148 41.4977C29.2788 40.8738 29.9184 39.9877 30.2384 38.9711C31.4521 35.3282 30.09 31.3902 37.6564 30.3979" fill="#0CA750"/>
<path d="M37.6573 26.9764H37.8573V26.7817L37.6627 26.7764L37.6573 26.9764ZM27.129 37.7268L26.929 37.7129V37.7268H27.129ZM25.4581 38.586V38.386H25.2589L25.2581 38.5852L25.4581 38.586ZM25.4429 42.4341L25.2429 42.4334L25.2421 42.6312L25.4399 42.6341L25.4429 42.4341ZM30.2384 38.9711L30.0486 38.9079L30.0476 38.911L30.2384 38.9711ZM37.8573 30.397V26.9764H37.4573V30.397H37.8573ZM37.6573 26.9764C37.6627 26.7764 37.6626 26.7764 37.6624 26.7764C37.6623 26.7764 37.6621 26.7764 37.6618 26.7764C37.6614 26.7764 37.6608 26.7764 37.6601 26.7764C37.6586 26.7763 37.6565 26.7763 37.6539 26.7762C37.6486 26.7762 37.6409 26.776 37.6311 26.7759C37.6113 26.7758 37.5826 26.7757 37.5454 26.7761C37.4711 26.7768 37.3631 26.7794 37.2259 26.7867C36.9516 26.8013 36.5604 26.8345 36.0892 26.9094C35.1475 27.0589 33.8819 27.375 32.5901 28.0426C29.9949 29.3839 27.3196 32.132 26.9295 37.7129L27.3285 37.7408C27.7085 32.3048 30.2974 29.6778 32.7738 28.398C34.0178 27.7551 35.2399 27.4492 36.1519 27.3044C36.6075 27.2321 36.9847 27.2001 37.2471 27.1862C37.3782 27.1792 37.4806 27.1768 37.5496 27.1761C37.5841 27.1757 37.6102 27.1758 37.6274 27.1759C37.6361 27.176 37.6424 27.1761 37.6465 27.1762C37.6486 27.1762 37.65 27.1763 37.6509 27.1763C37.6514 27.1763 37.6517 27.1763 37.6518 27.1763C37.6519 27.1763 37.6519 27.1763 37.6519 27.1763C37.6519 27.1763 37.6518 27.1763 37.6573 26.9764ZM26.929 37.7268C26.929 37.9017 26.8596 38.0693 26.7359 38.193L27.0188 38.4758C27.2174 38.2772 27.329 38.0078 27.329 37.7268H26.929ZM26.7359 38.193C26.6123 38.3166 26.4447 38.386 26.2698 38.386V38.786C26.5508 38.786 26.8202 38.6744 27.0188 38.4758L26.7359 38.193ZM26.2698 38.386H25.4581V38.786H26.2698V38.386ZM25.2581 38.5852L25.2429 42.4334L25.6429 42.4349L25.6581 38.5868L25.2581 38.5852ZM25.4399 42.6341C26.5486 42.6507 27.633 42.309 28.5319 41.6599L28.2977 41.3356C27.4686 41.9343 26.4684 42.2495 25.4459 42.2342L25.4399 42.6341ZM28.5319 41.6599C29.4308 41.0107 30.0962 40.0888 30.4292 39.0311L30.0476 38.911C29.7405 39.8865 29.1268 40.7369 28.2977 41.3356L28.5319 41.6599ZM30.4281 39.0343C30.7373 38.1064 30.8824 37.1592 31.0423 36.2696C31.2035 35.3726 31.3798 34.5324 31.7452 33.7777C32.1074 33.0292 32.6581 32.3605 33.5778 31.8159C34.502 31.2687 35.8067 30.8422 37.6824 30.5962L37.6304 30.1996C35.7229 30.4497 34.3605 30.8876 33.374 31.4717C32.3832 32.0584 31.7798 32.7879 31.3851 33.6034C30.9934 34.4126 30.8098 35.3019 30.6486 36.1989C30.4861 37.1033 30.3463 38.0144 30.0486 38.9079L30.4281 39.0343Z" fill="#0CA750" mask="url(#path-4-outside-2_536_7149)"/>
<mask id="path-6-outside-3_536_7149" maskUnits="userSpaceOnUse" x="12.4021" y="25.9758" width="14" height="17" fill="black">
<rect fill="white" x="12.4021" y="25.9758" width="14" height="17"/>
<path d="M13.4021 30.397V26.9764C13.4021 26.9764 23.1602 26.71 23.9304 37.7268C23.9304 37.9547 24.0209 38.1732 24.182 38.3344C24.3431 38.4955 24.5617 38.586 24.7895 38.586H25.53V42.4358C24.4759 42.4457 23.447 42.1132 22.5979 41.4885C21.7488 40.8637 21.1253 39.9804 20.821 38.9711C19.6073 35.3282 20.9694 31.3902 13.4021 30.3979"/>
</mask>
<path d="M13.4021 30.397V26.9764C13.4021 26.9764 23.1602 26.71 23.9304 37.7268C23.9304 37.9547 24.0209 38.1732 24.182 38.3344C24.3431 38.4955 24.5617 38.586 24.7895 38.586H25.53V42.4358C24.4759 42.4457 23.447 42.1132 22.5979 41.4885C21.7488 40.8637 21.1253 39.9804 20.821 38.9711C19.6073 35.3282 20.9694 31.3902 13.4021 30.3979" fill="#0CA750"/>
<path d="M13.4021 26.9764L13.3966 26.7764L13.2021 26.7817V26.9764H13.4021ZM23.9304 37.7268H24.1308L24.1299 37.7129L23.9304 37.7268ZM25.53 38.586H25.73V38.386H25.53V38.586ZM25.53 42.4358L25.5318 42.6358L25.73 42.634V42.4358H25.53ZM20.821 38.9711L21.0126 38.9133L21.0107 38.9079L20.821 38.9711ZM13.6021 30.397V26.9764H13.2021V30.397H13.6021ZM13.4021 26.9764C13.4076 27.1763 13.4075 27.1763 13.4074 27.1763C13.4075 27.1763 13.4075 27.1763 13.4076 27.1763C13.4077 27.1763 13.408 27.1763 13.4084 27.1763C13.4093 27.1763 13.4108 27.1762 13.4128 27.1762C13.4169 27.1761 13.4233 27.176 13.4319 27.1759C13.4492 27.1758 13.4753 27.1757 13.5098 27.1761C13.5788 27.1768 13.6812 27.1792 13.8123 27.1862C14.0747 27.2001 14.4518 27.2321 14.9075 27.3044C15.8195 27.4492 17.0416 27.7551 18.2856 28.398C20.762 29.6778 23.3508 32.3048 23.7308 37.7408L24.1299 37.7129C23.7397 32.132 21.0645 29.3839 18.4692 28.0426C17.1775 27.375 15.9119 27.0589 14.9702 26.9094C14.499 26.8345 14.1078 26.8013 13.8335 26.7867C13.6963 26.7794 13.5883 26.7768 13.5139 26.7761C13.4768 26.7757 13.448 26.7758 13.4283 26.7759C13.4184 26.776 13.4108 26.7762 13.4055 26.7762C13.4029 26.7763 13.4008 26.7763 13.3993 26.7764C13.3986 26.7764 13.398 26.7764 13.3975 26.7764C13.3973 26.7764 13.3971 26.7764 13.397 26.7764C13.3968 26.7764 13.3966 26.7764 13.4021 26.9764ZM23.7304 37.7268C23.7304 38.0078 23.8419 38.2772 24.0406 38.4758L24.3234 38.193C24.1998 38.0693 24.1304 37.9017 24.1304 37.7268H23.7304ZM24.0406 38.4758C24.2392 38.6744 24.5086 38.786 24.7895 38.786V38.386C24.6147 38.386 24.447 38.3166 24.3234 38.193L24.0406 38.4758ZM24.7895 38.786H25.53V38.386H24.7895V38.786ZM25.33 38.586V42.4358H25.73V38.586H25.33ZM25.5281 42.2359C24.5173 42.2453 23.5307 41.9265 22.7164 41.3274L22.4794 41.6496C23.3633 42.3 24.4344 42.646 25.5318 42.6358L25.5281 42.2359ZM22.7164 41.3274C21.9022 40.7283 21.3043 39.8812 21.0125 38.9134L20.6295 39.0288C20.9463 40.0796 21.5954 40.9992 22.4794 41.6496L22.7164 41.3274ZM21.0107 38.9079C20.713 38.0144 20.5733 37.1033 20.4107 36.1989C20.2495 35.3019 20.0659 34.4126 19.6742 33.6034C19.2794 32.7879 18.676 32.0584 17.685 31.4717C16.6984 30.8876 15.3358 30.4497 13.4281 30.1996L13.3761 30.5962C15.252 30.8422 16.5569 31.2687 17.4812 31.8159C18.401 32.3605 18.9518 33.0292 19.3141 33.7777C19.6795 34.5324 19.8558 35.3726 20.0171 36.2696C20.1769 37.1592 20.3221 38.1064 20.6312 39.0343L21.0107 38.9079Z" fill="#0CA750" mask="url(#path-6-outside-3_536_7149)"/>
<path d="M74.918 27.6486C74.918 27.1212 74.8359 26.6525 74.6719 26.2423C74.5195 25.8322 74.2441 25.4572 73.8457 25.1173C73.4473 24.7775 72.8848 24.4493 72.1582 24.1329C71.4434 23.8048 70.5293 23.4708 69.416 23.131C68.1973 22.756 67.0723 22.34 66.041 21.8829C65.0215 21.4142 64.1309 20.8751 63.3691 20.2657C62.6074 19.6447 62.0156 18.9357 61.5938 18.1388C61.1719 17.3302 60.9609 16.3986 60.9609 15.3439C60.9609 14.3009 61.1777 13.3517 61.6113 12.4962C62.0566 11.6407 62.6836 10.9025 63.4922 10.2814C64.3125 9.64856 65.2793 9.16223 66.3926 8.82239C67.5059 8.47083 68.7363 8.29504 70.084 8.29504C71.9824 8.29504 73.6172 8.64661 74.9883 9.34973C76.3711 10.0529 77.4316 10.9962 78.1699 12.1798C78.9199 13.3634 79.2949 14.67 79.2949 16.0997H74.918C74.918 15.256 74.7363 14.5118 74.373 13.8673C74.0215 13.2111 73.4824 12.6954 72.7559 12.3204C72.041 11.9454 71.1328 11.7579 70.0312 11.7579C68.9883 11.7579 68.1211 11.9161 67.4297 12.2325C66.7383 12.549 66.2227 12.9767 65.8828 13.5157C65.543 14.0548 65.373 14.6642 65.373 15.3439C65.373 15.8243 65.4844 16.2638 65.707 16.6622C65.9297 17.049 66.2695 17.4122 66.7266 17.7521C67.1836 18.0802 67.7578 18.3907 68.4492 18.6837C69.1406 18.9767 69.9551 19.2579 70.8926 19.5275C72.3105 19.9493 73.5469 20.4181 74.6016 20.9337C75.6562 21.4376 76.5352 22.0118 77.2383 22.6564C77.9414 23.3009 78.4688 24.0333 78.8203 24.8536C79.1719 25.6622 79.3477 26.5822 79.3477 27.6134C79.3477 28.6915 79.1309 29.6642 78.6973 30.5314C78.2637 31.3868 77.6426 32.1193 76.834 32.7286C76.0371 33.3263 75.0762 33.7892 73.9512 34.1173C72.8379 34.4337 71.5957 34.5919 70.2246 34.5919C68.9941 34.5919 67.7812 34.4279 66.5859 34.0997C65.4023 33.7716 64.3242 33.2736 63.3516 32.6056C62.3789 31.9259 61.6055 31.0822 61.0312 30.0743C60.457 29.0548 60.1699 27.8654 60.1699 26.506H64.582C64.582 27.338 64.7227 28.047 65.0039 28.6329C65.2969 29.2189 65.7012 29.6993 66.2168 30.0743C66.7324 30.4376 67.3301 30.7072 68.0098 30.8829C68.7012 31.0587 69.4395 31.1466 70.2246 31.1466C71.2559 31.1466 72.1172 31.0001 72.8086 30.7072C73.5117 30.4142 74.0391 30.004 74.3906 29.4767C74.7422 28.9493 74.918 28.34 74.918 27.6486ZM91.5469 15.2208V18.3146H80.8242V15.2208H91.5469ZM83.918 10.5626H88.1543V28.9845C88.1543 29.5704 88.2363 30.0216 88.4004 30.338C88.5762 30.6427 88.8164 30.8478 89.1211 30.9532C89.4258 31.0587 89.7832 31.1115 90.1934 31.1115C90.4863 31.1115 90.7676 31.0939 91.0371 31.0587C91.3066 31.0236 91.5234 30.9884 91.6875 30.9532L91.7051 34.1876C91.3535 34.2931 90.9434 34.3868 90.4746 34.4689C90.0176 34.5509 89.4902 34.5919 88.8926 34.5919C87.9199 34.5919 87.0586 34.422 86.3086 34.0822C85.5586 33.7306 84.9727 33.1622 84.5508 32.3771C84.1289 31.5919 83.918 30.549 83.918 29.2482V10.5626ZM93.5859 24.9415V24.5372C93.5859 23.1661 93.7852 21.8947 94.1836 20.7228C94.582 19.5392 95.1562 18.5138 95.9062 17.6466C96.668 16.7677 97.5938 16.088 98.6836 15.6075C99.7852 15.1154 101.027 14.8693 102.41 14.8693C103.805 14.8693 105.047 15.1154 106.137 15.6075C107.238 16.088 108.17 16.7677 108.932 17.6466C109.693 18.5138 110.273 19.5392 110.672 20.7228C111.07 21.8947 111.27 23.1661 111.27 24.5372V24.9415C111.27 26.3126 111.07 27.5841 110.672 28.756C110.273 29.9279 109.693 30.9532 108.932 31.8322C108.17 32.6993 107.244 33.379 106.154 33.8712C105.064 34.3517 103.828 34.5919 102.445 34.5919C101.051 34.5919 99.8027 34.3517 98.7012 33.8712C97.6113 33.379 96.6855 32.6993 95.9238 31.8322C95.1621 30.9532 94.582 29.9279 94.1836 28.756C93.7852 27.5841 93.5859 26.3126 93.5859 24.9415ZM97.8223 24.5372V24.9415C97.8223 25.797 97.9102 26.6056 98.0859 27.3673C98.2617 28.129 98.5371 28.797 98.9121 29.3712C99.2871 29.9454 99.7676 30.3966 100.354 30.7247C100.939 31.0529 101.637 31.2169 102.445 31.2169C103.23 31.2169 103.91 31.0529 104.484 30.7247C105.07 30.3966 105.551 29.9454 105.926 29.3712C106.301 28.797 106.576 28.129 106.752 27.3673C106.939 26.6056 107.033 25.797 107.033 24.9415V24.5372C107.033 23.6935 106.939 22.8966 106.752 22.1466C106.576 21.3849 106.295 20.7111 105.908 20.1251C105.533 19.5392 105.053 19.0822 104.467 18.754C103.893 18.4142 103.207 18.2443 102.41 18.2443C101.613 18.2443 100.922 18.4142 100.336 18.754C99.7617 19.0822 99.2871 19.5392 98.9121 20.1251C98.5371 20.7111 98.2617 21.3849 98.0859 22.1466C97.9102 22.8966 97.8223 23.6935 97.8223 24.5372ZM117.668 15.2208L121.289 21.5314L124.98 15.2208H129.639L123.873 24.5548L129.867 34.2404H125.209L121.342 27.6661L117.475 34.2404H112.799L118.775 24.5548L113.027 15.2208H117.668ZM137.373 8.64661V34.2404H132.961V8.64661H137.373ZM152.754 8.64661L142.383 20.9689L136.477 27.2267L135.703 22.8497L139.922 17.6466L147.375 8.64661H152.754ZM148.008 34.2404L139.588 22.1115L142.629 19.1056L153.246 34.2404H148.008ZM166.008 30.4259V21.3556C166.008 20.6759 165.885 20.09 165.639 19.5978C165.393 19.1056 165.018 18.7247 164.514 18.4552C164.021 18.1857 163.4 18.0509 162.65 18.0509C161.959 18.0509 161.361 18.1681 160.857 18.4025C160.354 18.6368 159.961 18.9532 159.68 19.3517C159.398 19.7501 159.258 20.2013 159.258 20.7052H155.039C155.039 19.9552 155.221 19.2286 155.584 18.5255C155.947 17.8224 156.475 17.1954 157.166 16.6447C157.857 16.0939 158.684 15.6603 159.645 15.3439C160.605 15.0275 161.684 14.8693 162.879 14.8693C164.309 14.8693 165.574 15.1095 166.676 15.59C167.789 16.0704 168.662 16.797 169.295 17.7697C169.939 18.7306 170.262 19.9376 170.262 21.3907V29.8458C170.262 30.713 170.32 31.4923 170.438 32.1837C170.566 32.8634 170.748 33.4552 170.982 33.9591V34.2404H166.641C166.441 33.7833 166.283 33.2032 166.166 32.5001C166.061 31.7853 166.008 31.0939 166.008 30.4259ZM166.623 22.674L166.658 25.2931H163.617C162.832 25.2931 162.141 25.3693 161.543 25.5216C160.945 25.6622 160.447 25.8732 160.049 26.1544C159.65 26.4357 159.352 26.7755 159.152 27.174C158.953 27.5724 158.854 28.0236 158.854 28.5275C158.854 29.0314 158.971 29.4943 159.205 29.9161C159.439 30.3263 159.779 30.6486 160.225 30.8829C160.682 31.1173 161.232 31.2345 161.877 31.2345C162.744 31.2345 163.5 31.0587 164.145 30.7072C164.801 30.3439 165.316 29.9044 165.691 29.3888C166.066 28.8615 166.266 28.3634 166.289 27.8947L167.66 29.7755C167.52 30.256 167.279 30.7716 166.939 31.3224C166.6 31.8732 166.154 32.4005 165.604 32.9044C165.064 33.3966 164.414 33.8009 163.652 34.1173C162.902 34.4337 162.035 34.5919 161.051 34.5919C159.809 34.5919 158.701 34.3458 157.729 33.8536C156.756 33.3497 155.994 32.6759 155.443 31.8322C154.893 30.9767 154.617 30.0099 154.617 28.9318C154.617 27.924 154.805 27.0333 155.18 26.2599C155.566 25.4747 156.129 24.8185 156.867 24.2911C157.617 23.7638 158.531 23.3654 159.609 23.0958C160.688 22.8146 161.918 22.674 163.301 22.674H166.623ZM178.945 18.8419V34.2404H174.709V15.2208H178.752L178.945 18.8419ZM184.764 15.0978L184.729 19.0353C184.471 18.9884 184.189 18.9532 183.885 18.9298C183.592 18.9064 183.299 18.8947 183.006 18.8947C182.279 18.8947 181.641 19.0001 181.09 19.2111C180.539 19.4103 180.076 19.7032 179.701 20.09C179.338 20.465 179.057 20.922 178.857 21.4611C178.658 22.0001 178.541 22.6036 178.506 23.2716L177.539 23.3419C177.539 22.1466 177.656 21.0392 177.891 20.0197C178.125 19.0001 178.477 18.1036 178.945 17.3302C179.426 16.5568 180.023 15.9532 180.738 15.5197C181.465 15.0861 182.303 14.8693 183.252 14.8693C183.51 14.8693 183.785 14.8927 184.078 14.9396C184.383 14.9865 184.611 15.0392 184.764 15.0978ZM197.016 15.2208V18.3146H186.293V15.2208H197.016ZM189.387 10.5626H193.623V28.9845C193.623 29.5704 193.705 30.0216 193.869 30.338C194.045 30.6427 194.285 30.8478 194.59 30.9532C194.895 31.0587 195.252 31.1115 195.662 31.1115C195.955 31.1115 196.236 31.0939 196.506 31.0587C196.775 31.0236 196.992 30.9884 197.156 30.9532L197.174 34.1876C196.822 34.2931 196.412 34.3868 195.943 34.4689C195.486 34.5509 194.959 34.5919 194.361 34.5919C193.389 34.5919 192.527 34.422 191.777 34.0822C191.027 33.7306 190.441 33.1622 190.02 32.3771C189.598 31.5919 189.387 30.549 189.387 29.2482V10.5626Z" fill="#424242"/>
</svg>
